<svg xmlns="http://www.w3.org/2000/svg" viewBox="0 0 201.62 333.88"><defs><style>.cls-1{fill:#5f2414;}</style></defs><title>chung-toi</title><g id="Layer_2" data-name="Layer 2"><g id="chung-toi"><g id="chung-toi-2" data-name="chung-toi"><path class="cls-1" d="M0,0V333.88H201.62V0ZM7,7h8.61V281.64H7ZM7,288.64H32.27v6.69H17V317.6H39.27V302.33H46v24.55H7Zm25.27,13.69v8.27H24v-8.27Zm146.66,24.55H53V295.33H39.27V281.64H22.61V7H146.93V37.43h13.69V51.12h18.31Zm15.69,0h-8.69V51.12h8.69Zm0-282.76h-27V37.43h15.27V15.16H160.62V30.43h-6.69V7h40.69Zm-27-13.69V22.16h8.27v8.27Z"/><path class="cls-1" d="M88.13,169.87A4.39,4.39,0,0,1,90,168.51a1.44,1.44,0,0,1,1.38.11c.31.25.38.69.23,1.3a5.25,5.25,0,0,1-1.5,2.19,10.94,10.94,0,0,1-3.9,2.4,10,10,0,0,1-5.28.25,8.6,8.6,0,0,1-6.48-4.59,7.09,7.09,0,0,1-1.38,1.94,9.63,9.63,0,0,1-3.75,2.27,10.35,10.35,0,0,1-4.56.54,6.4,6.4,0,0,1-3.7-1.53A8.31,8.31,0,0,1,58.91,170a20,20,0,0,1-1-5.08,55.47,55.47,0,0,1-.16-6.45c0-1.36.11-2.71.23-4.05s.27-2.57.46-3.67a18.16,18.16,0,0,1,.66-2.76c.26-.73.54-1.15.85-1.25a13.2,13.2,0,0,1,5-1,4,4,0,0,1,2.93,1.2,4.55,4.55,0,0,1,1,3.06,13.84,13.84,0,0,1-.85,4.51,38.58,38.58,0,0,0-1.32,5.16,18.71,18.71,0,0,0-.26,5.66,11.24,11.24,0,0,0,1.25,4.48,1.14,1.14,0,0,0,2,.26,6,6,0,0,0,1.09-1.43,16.17,16.17,0,0,0,.95-1.91,20.14,20.14,0,0,0,.68-1.91,8.38,8.38,0,0,0,.34-1.48,10.94,10.94,0,0,1,0-1.15v-5.48c0-1.63,0-3.22.07-4.75a38.21,38.21,0,0,1,.31-4c.15-1.14.36-1.79.64-2a12.58,12.58,0,0,1,4.43-2,4,4,0,0,1,3.16.51,4.46,4.46,0,0,1,1.64,2.88,13.44,13.44,0,0,1-.21,5.12c-.2,1.16-.39,2.47-.56,3.93s-.27,2.92-.31,4.36a35.24,35.24,0,0,0,.13,4.06,8.76,8.76,0,0,0,.74,3,8.35,8.35,0,0,0,.87,1.48,4.88,4.88,0,0,0,1.27,1.22,2.5,2.5,0,0,0,1.53.41A2.75,2.75,0,0,0,88.13,169.87Zm-6.84-36.16c0,.1-.41.47-1.25,1.09s-1.89,1.37-3.18,2.22-2.71,1.75-4.26,2.68-3,1.75-4.39,2.45a22,22,0,0,1-3.57,1.5q-1.5.47-1.86-.15c-.1-.2.1-.73.61-1.58a23.75,23.75,0,0,1,2.3-3.06,46.57,46.57,0,0,1,3.8-3.88,43.53,43.53,0,0,1,5.17-4q2.91-1.94,4.49-1C80.21,130.55,80.92,131.8,81.29,133.71Z"/><path class="cls-1" d="M88.74,224.36A4.54,4.54,0,0,1,90.58,223a1.23,1.23,0,0,1,1.27.11c.27.25.32.69.13,1.3a6,6,0,0,1-1.56,2.19,12.39,12.39,0,0,1-1.83,1.48,10.83,10.83,0,0,1-2.3,1.17,10.45,10.45,0,0,1-2.62.61,10.07,10.07,0,0,1-2.89-.1,12.66,12.66,0,0,1-3.64-1.15,7,7,0,0,1-2.58-2.21A10.39,10.39,0,0,1,73,222.75a23.34,23.34,0,0,1-.54-5.43c0-2.21-.07-4-.2-5.25a10.8,10.8,0,0,0-.59-2.86c-.25-.61-.55-.93-.89-.94a2,2,0,0,0-1.18.43,6.72,6.72,0,0,0-1.86,2.4,18.8,18.8,0,0,0-1.32,3.59,29.2,29.2,0,0,0-.79,4.31,41.54,41.54,0,0,0-.26,4.59c.1.78.23,1.54.38,2.27s.32,1.44.49,2.12c.1.37-.1.73-.59,1.07a5.13,5.13,0,0,1-1.88.74,7.41,7.41,0,0,1-2.45.05A5.22,5.22,0,0,1,59,228.9a3.71,3.71,0,0,1-.67-1.74,35.36,35.36,0,0,1-.53-3.75q-.24-2.31-.36-5.43c-.09-2.07-.13-4.32-.13-6.73,0-2,.06-3.84.18-5.51s.27-3.1.46-4.31a17.23,17.23,0,0,1,.64-2.85c.24-.7.47-1.08.71-1.15a12.87,12.87,0,0,1,4.41-.54,3.34,3.34,0,0,1,2.43,1.18,4.19,4.19,0,0,1,.74,2.67,16.79,16.79,0,0,1-.64,4c-.34,1.26-.61,2.48-.82,3.67s-.36,2.35-.46,3.47a26.61,26.61,0,0,1,2.78-5.63,12.06,12.06,0,0,1,3.44-3.6,13.58,13.58,0,0,1,4.88-2,6.6,6.6,0,0,1,4,.38,4.73,4.73,0,0,1,2.39,2.7,9,9,0,0,1,.16,5.05q-.31,1.74-.51,3.72c-.14,1.33-.22,2.64-.26,3.93a33.15,33.15,0,0,0,.1,3.65,13,13,0,0,0,.57,2.93,4.66,4.66,0,0,0,1.14,2.09,2.87,2.87,0,0,0,1.61.84,3.27,3.27,0,0,0,1.81-.28A5,5,0,0,0,88.74,224.36Z"/><path class="cls-1" d="M86.27,277a4.09,4.09,0,0,1,2.11-.28c.46.12.72.34.77.66a1.49,1.49,0,0,1-.39,1.1,2.72,2.72,0,0,1-1.32.92c-.92.37-1.8.72-2.65,1s-1.67.67-2.45,1.05c-.14,1.8-.3,3.6-.49,5.4s-.4,3.55-.66,5.23a41.16,41.16,0,0,1-1,4.69,17.81,17.81,0,0,1-1.4,3.7,8.58,8.58,0,0,1-3.44,3.65,9.41,9.41,0,0,1-4.49,1.22,9,9,0,0,1-4.44-1.12,8.39,8.39,0,0,1-3.34-3.34A8.5,8.5,0,0,1,62,296.36a10.63,10.63,0,0,1,1.5-4.81,19.81,19.81,0,0,1,4.11-4.85,38.25,38.25,0,0,1,6.73-4.64,8.44,8.44,0,0,0,.13-1.1c0-.35,0-.72.08-1.09a11.41,11.41,0,0,1-3.24,2.29,7.48,7.48,0,0,1-4.06.56,9.53,9.53,0,0,1-4-1.35,8.66,8.66,0,0,1-2.88-3,11.33,11.33,0,0,1-1.43-4.59,22.15,22.15,0,0,1,.3-6.17,14.75,14.75,0,0,1,2.27-5.82,13,13,0,0,1,3.8-3.72,11.2,11.2,0,0,1,4.44-1.63,9.11,9.11,0,0,1,4.23.35,7,7,0,0,1,.82-3.06,4,4,0,0,1,2-1.81,6,6,0,0,1,3.29-.17,14.36,14.36,0,0,1,4.51,1.83c.31.17.48.7.51,1.58a26.23,26.23,0,0,1-.15,3.52c-.14,1.46-.35,3.19-.64,5.18s-.6,4.15-.94,6.5c-.17,1.09-.32,2.3-.43,3.65s-.23,2.78-.34,4.31c.58-.24,1.18-.47,1.79-.69S85.62,277.21,86.27,277ZM71.68,297.82a7.86,7.86,0,0,0,.59-1.76c.18-.8.38-1.74.58-2.83s.39-2.27.56-3.55.34-2.59.51-3.95a31.38,31.38,0,0,0-4.74,3.49,14.92,14.92,0,0,0-2.75,3.29,6.39,6.39,0,0,0-1,3,5.34,5.34,0,0,0,.61,2.71,3.29,3.29,0,0,0,1.12,1.22,2.77,2.77,0,0,0,1.53.46,3,3,0,0,0,1.61-.49A3.71,3.71,0,0,0,71.68,297.82Zm.46-20.1a7.7,7.7,0,0,0,1.94-3,24.53,24.53,0,0,0,.86-3Q75,270,75,268.6c0-1,0-1.91-.1-2.86s-.14-1.91-.26-2.88-.26-2-.43-3.14q-2.1-.56-3.52,1.73a17.43,17.43,0,0,0-2,6.84,18.68,18.68,0,0,0,0,5.33,8.45,8.45,0,0,0,1,3A2.69,2.69,0,0,0,71,277.88,1.15,1.15,0,0,0,72.14,277.72Z"/><path class="cls-1" d="M119.25,94a4.46,4.46,0,0,1,1.83-1.36,1.25,1.25,0,0,1,1.28.11c.27.25.31.69.12,1.3a5.8,5.8,0,0,1-1.55,2.19,10.36,10.36,0,0,1-3.88,2.4,9.94,9.94,0,0,1-5.25.25,8.76,8.76,0,0,1-6.22-4c-1.4-2.19-2.09-5.47-2.09-9.82a47.13,47.13,0,0,0-.23-5.2,12.23,12.23,0,0,0-.61-2.86c-.26-.61-.56-.93-.92-1a1.62,1.62,0,0,0-1.15.46,4.9,4.9,0,0,0-.87.92,17.4,17.4,0,0,0-1,1.48,16.17,16.17,0,0,0-.94,1.91,21.34,21.34,0,0,0-.74,2.12,68.21,68.21,0,0,0,0,7.93,25.77,25.77,0,0,0,.92,5.94c.1.34-.05.71-.46,1.1a4,4,0,0,1-1.68.89,6,6,0,0,1-2.43.13,5.87,5.87,0,0,1-2.72-1.2c-.38-.27-.68-1.1-.9-2.47s-.4-3.09-.53-5.13S89,85.8,89,83.3s0-5,.16-7.52c.06-1.33.16-2.86.28-4.59s.26-3.54.43-5.41.36-3.7.56-5.5.43-3.43.66-4.88.47-2.62.69-3.54.44-1.43.64-1.53a15.85,15.85,0,0,1,5.33-1.4,4.38,4.38,0,0,1,3.29,1,4.61,4.61,0,0,1,1.25,3.16,15.46,15.46,0,0,1-.79,5.16q-1.17,4-2.07,8.18t-1.5,8.34a20.13,20.13,0,0,1,2.17-2.65,12.15,12.15,0,0,1,2-1.69,13.63,13.63,0,0,1,4.9-2,6.85,6.85,0,0,1,4,.38,4.73,4.73,0,0,1,2.42,2.71,9.4,9.4,0,0,1,.21,5c-.21,1.15-.39,2.47-.54,4s-.24,2.94-.25,4.38,0,2.82.1,4.11a12.05,12.05,0,0,0,.53,3.11c.58,1.84,1.42,2.91,2.53,3.21S118.16,95.21,119.25,94Z"/><path class="cls-1" d="M131.45,207.7a28.6,28.6,0,0,1,3.68,4.24,29.63,29.63,0,0,1,2.5,4.18,11.43,11.43,0,0,1,1.09,3.39c.12,1-.06,1.57-.53,1.81-.11.07-.37,0-.79-.33s-1-.7-1.61-1.22-1.39-1.16-2.22-1.89-1.68-1.51-2.55-2.32-1.74-1.66-2.63-2.53-1.71-1.71-2.49-2.52c-.58.68-1.23,1.41-1.94,2.19s-1.46,1.57-2.22,2.37-1.53,1.59-2.3,2.37-1.5,1.52-2.22,2.2a5,5,0,0,1-2.47,1.4,3.12,3.12,0,0,1-2.09-.36,4.85,4.85,0,0,1-1.66-1.63,8.44,8.44,0,0,1-1.07-2.52c0-.11,0-.28.18-.54a7.32,7.32,0,0,1,.92-1.1c.46-.47,1.1-1.07,1.94-1.81s1.93-1.64,3.29-2.72a24.49,24.49,0,0,1,6-3.6,11.35,11.35,0,0,1,4.54-1,6.27,6.27,0,0,1,4.64,1.93Zm6,27.08a7.16,7.16,0,0,0,1.1-.61l1.27-.79,1.15-.69a1.77,1.77,0,0,1,.77-.3c.54,0,.85.32.91,1,0,.2-.12.5-.48.89a11.84,11.84,0,0,1-1.38,1.25c-.56.44-1.19.88-1.88,1.32a16.37,16.37,0,0,1-2.07,1.13,19.46,19.46,0,0,1-2.14,4.94,15.44,15.44,0,0,1-3.5,4,14.18,14.18,0,0,1-4.69,2.53,13.68,13.68,0,0,1-10.55-1.3,10.89,10.89,0,0,1-3.55-3.5,13.42,13.42,0,0,1-1.86-5.15,20.13,20.13,0,0,1,.18-6.7,14.59,14.59,0,0,1,1.45-4.29,16.48,16.48,0,0,1,2.48-3.54,15.14,15.14,0,0,1,3.18-2.65,13.51,13.51,0,0,1,3.6-1.61,4.28,4.28,0,0,1,2.27-.23,1,1,0,0,1,.71.74,1.83,1.83,0,0,1-.2,1.07,4.82,4.82,0,0,1-.44.76c-.3.45-.66,1-1.07,1.74a18.16,18.16,0,0,0-1.14,2.45,20.83,20.83,0,0,0-.92,3,20.36,20.36,0,0,0-.49,3.5,23,23,0,0,0,.11,4.41,15.67,15.67,0,0,0,.86,3.72,7.19,7.19,0,0,0,1.56,2.55,3,3,0,0,0,2.17.94,5.11,5.11,0,0,0,3.82-1.63,10.57,10.57,0,0,0,2.4-4.54,7.82,7.82,0,0,1-4.67-1,6.92,6.92,0,0,1-2.5-2.91,9.31,9.31,0,0,1-.79-3.88,16.06,16.06,0,0,1,.49-4,13.21,13.21,0,0,1,1.27-3.31,3.8,3.8,0,0,1,1.66-1.76,5,5,0,0,1,3.47-.1,9.1,9.1,0,0,1,3.62,2.09,12.35,12.35,0,0,1,2.8,3.9,11.72,11.72,0,0,1,1.07,5.33v.61A3.81,3.81,0,0,1,137.47,234.78ZM127,225.4a4.79,4.79,0,0,0-.56,1.4,8.12,8.12,0,0,0-.28,2.12,11.92,11.92,0,0,0,.2,2.42,6.53,6.53,0,0,0,.87,2.3,5.58,5.58,0,0,0,1.73,1.76,5.33,5.33,0,0,0,2.78.76,27,27,0,0,0,.15-2.91,19.77,19.77,0,0,0-.51-4.87,8.15,8.15,0,0,0-1.27-2.93,2.14,2.14,0,0,0-1.61-1A1.87,1.87,0,0,0,127,225.4Z"/><path class="cls-1" d="M133.39,299a4.52,4.52,0,0,1,1.89-1.35,1.44,1.44,0,0,1,1.38.11,1.23,1.23,0,0,1,.25,1.3,5.07,5.07,0,0,1-1.48,2.19,13.89,13.89,0,0,1-1.94,1.5A13.07,13.07,0,0,1,131,304a13.93,13.93,0,0,1-2.83.79,10.89,10.89,0,0,1-3,.1,7,7,0,0,1-4.36-1.94,10.13,10.13,0,0,1-2.4-4.36,25.38,25.38,0,0,1-.86-6.42,79.64,79.64,0,0,1,.28-8.09c.07-.88.11-1.76.13-2.65s0-1.69.1-2.42a16.29,16.29,0,0,1,.23-1.89,1.48,1.48,0,0,1,.56-1,12.1,12.1,0,0,1,4.46-2,4.24,4.24,0,0,1,3.19.51,4.19,4.19,0,0,1,1.58,2.86,13.77,13.77,0,0,1-.31,5.12q-.66,3.17-1,5.61c-.22,1.64-.36,3.07-.41,4.31a21.23,21.23,0,0,0,.08,3.19,10.58,10.58,0,0,0,.46,2.24,2.75,2.75,0,0,0,.91,1.38,4.37,4.37,0,0,0,1.64.89,3.51,3.51,0,0,0,1.93,0A3.88,3.88,0,0,0,133.39,299Zm-3.72-33.45a4.61,4.61,0,0,1,.59,2.73,4.42,4.42,0,0,1-.95,2.19,5.17,5.17,0,0,1-2,1.48,7.65,7.65,0,0,1-2.63.61,7.47,7.47,0,0,1-2.75-.38,6,6,0,0,1-2.45-1.58,2.53,2.53,0,0,1-.51-3.09c.54-1.14,1.85-2.23,3.93-3.29.51-.27,1.06-.53,1.65-.79a5.05,5.05,0,0,1,1.79-.41,3.13,3.13,0,0,1,1.73.51A5.14,5.14,0,0,1,129.67,265.51Z"/><path class="cls-1" d="M87.68,118.26A67.36,67.36,0,0,1,77,116.93a48.27,48.27,0,0,1-10.33-3.39,41,41,0,0,1-9.21-5.83,36.33,36.33,0,0,1-7.49-8.64,42.6,42.6,0,0,1-5-11.74,58.42,58.42,0,0,1-1.8-15.22A66.74,66.74,0,0,1,46,51.62a52.09,52.09,0,0,1,7.59-15.3,34.2,34.2,0,0,1,10.52-9.54A23.62,23.62,0,0,1,75.8,23.51a16.6,16.6,0,0,1,6.26,1.18,21.64,21.64,0,0,1,5.3,3,19.77,19.77,0,0,1,3.89,4,11.27,11.27,0,0,1,2,4.18,14.9,14.9,0,0,1,.08,7.27,7.67,7.67,0,0,1-2.92,4.36,7.47,7.47,0,0,1-4.89,1.19,11.54,11.54,0,0,1-5.73-2.24c-.14-.09-.22-.56-.22-1.4s0-1.88,0-3.13-.12-2.59-.29-4a20,20,0,0,0-.9-4.07,10,10,0,0,0-1.83-3.31,5.29,5.29,0,0,0-3.21-1.77c-1.29-.19-2.76.6-4.39,2.38a26.27,26.27,0,0,0-4.57,7.92,69.59,69.59,0,0,0-3.6,13,92.57,92.57,0,0,0-1.48,17.42,54.59,54.59,0,0,0,2.88,18.83,38.27,38.27,0,0,0,7.52,12.85,30.7,30.7,0,0,0,10.41,7.53,34.61,34.61,0,0,0,11.59,2.84,47.59,47.59,0,0,0,11.3-.65q5.76-1,11.56-2.59T126,104.9a114.32,114.32,0,0,1,11.16-2.84A53.9,53.9,0,0,1,147.69,101a24.86,24.86,0,0,1,9.61,1.87,12.25,12.25,0,0,1,4.76,3.35,14.66,14.66,0,0,1,2.7,4.68,19,19,0,0,1,1,5.29,30.94,30.94,0,0,1-.14,5.22,27.34,27.34,0,0,1-.87,4.46,14.41,14.41,0,0,1-1.15,3c-.38.67-.66,1-.83,1s-.36-.28-.57-.79-.54-1.22-1-2.16a14.66,14.66,0,0,0-2.08-3.13,27,27,0,0,0-3.85-3.64,32.6,32.6,0,0,0-6.23-3.7,26.41,26.41,0,0,0-8.1-2.24,53.43,53.43,0,0,0-9.18-.21q-4.83.28-10.12,1.08t-10.87,1.58q-5.58.8-11.41,1.33A91.83,91.83,0,0,1,87.68,118.26Z"/><path class="cls-1" d="M165.49,130.13a3.6,3.6,0,0,1,2.09-1.18,1.61,1.61,0,0,1,1.48.43,1.91,1.91,0,0,1,.25,1.65,5.47,5.47,0,0,1-1.66,2.56,43.72,43.72,0,0,1-6.08,4.93A42.34,42.34,0,0,1,146,145a40.76,40.76,0,0,1-9,.72c.34,3,.67,6.15,1,9.54s.5,6.94.5,10.69a45.09,45.09,0,0,1-1.94,13.43A33.33,33.33,0,0,1,131.11,190a23,23,0,0,1-8.24,6.73,17.39,17.39,0,0,1-10.37,1.4,15.47,15.47,0,0,1-6.88-2.62,13.69,13.69,0,0,1-4-4.43,11,11,0,0,1-1.4-5,7.12,7.12,0,0,1,1-4.18,7.63,7.63,0,0,1,4.71-3.13,8.22,8.22,0,0,1,3.31,0,9.34,9.34,0,0,1,3.64,1.73,1.42,1.42,0,0,1,.32,1.33,23.06,23.06,0,0,1-.39,2.3c-.19.89-.39,1.81-.58,2.77a10.66,10.66,0,0,0-.21,2.7,4.06,4.06,0,0,0,.72,2.2,3,3,0,0,0,2.23,1.15c1.15.15,2.27-.47,3.35-1.83a19.3,19.3,0,0,0,2.88-6,55.11,55.11,0,0,0,2-9.57,99.2,99.2,0,0,0,.72-12.53q0-5.4.36-10.22a62.85,62.85,0,0,1,1.29-9,25.84,25.84,0,0,1-3.67-1.3,55.92,55.92,0,0,0-8.93-2.7,26.9,26.9,0,0,0-7.85-.58,11.94,11.94,0,0,0-6,2.13,9.55,9.55,0,0,0-3.49,5.33,18.69,18.69,0,0,0-.79,6.37,10.16,10.16,0,0,0,1.26,4.46,5.94,5.94,0,0,0,2.7,2.52,5.71,5.71,0,0,0,3.49.43,7.59,7.59,0,0,0,3.56-1.76,12.2,12.2,0,0,0,3-4.1,6.26,6.26,0,0,1,2.34-2.81,5.29,5.29,0,0,1,3.06-.9,5.72,5.72,0,0,1,3.09,1,7.54,7.54,0,0,1,2.52,3,5,5,0,0,1,.33,3.56,10.39,10.39,0,0,1-2,4,15.48,15.48,0,0,1-3.88,3.52,16,16,0,0,1-5.44,2.24,16.64,16.64,0,0,1-8.46-.33,17.59,17.59,0,0,1-7.31-4.25,17.07,17.07,0,0,1-4.46-7.48,18,18,0,0,1,.14-10.05,21.79,21.79,0,0,1,5.62-9.72,28.8,28.8,0,0,1,9.25-6.23,32.42,32.42,0,0,1,11-2.48,28.49,28.49,0,0,1,11,1.51c.91.34,1.81.65,2.7.94l2.62.86a22.36,22.36,0,0,1,4.83-4.89,4.64,4.64,0,0,1,2.27-1,1.66,1.66,0,0,1,1.4.39,1.27,1.27,0,0,1,.25,1.23,2.5,2.5,0,0,1-1.11,1.4A4.07,4.07,0,0,0,137.2,130a11.92,11.92,0,0,0-.8,2.62q10.38,2.59,17.68,2.09T165.49,130.13Z"/></g></g></g></svg>