<svg xmlns="http://www.w3.org/2000/svg" viewBox="0 0 201.62 333.88"><defs><style>.cls-1{fill:#5f2414;}</style></defs><title>Asset 15</title><g id="Layer_2" data-name="Layer 2"><g id="phi-vat-the"><path class="cls-1" d="M66,213.53a5,5,0,0,0-1.6-2,3,3,0,0,0-1.74-.51,4.78,4.78,0,0,0-1.78.4c-.6.26-1.15.52-1.66.79q-3.11,1.59-3.93,3.29a2.54,2.54,0,0,0,.51,3.09,6,6,0,0,0,2.45,1.58,7.3,7.3,0,0,0,2.75.38,7.6,7.6,0,0,0,2.63-.61,5.21,5.21,0,0,0,2-1.48,4.41,4.41,0,0,0,.94-2.19A4.55,4.55,0,0,0,66,213.53Zm7,32.21a1.42,1.42,0,0,0-1.38-.1A4.27,4.27,0,0,0,69.76,247a4,4,0,0,1-1.94,1.27,3.64,3.64,0,0,1-1.94,0,4.49,4.49,0,0,1-1.63-.9,2.7,2.7,0,0,1-.92-1.37,11.52,11.52,0,0,1-.46-2.25,21.09,21.09,0,0,1-.08-3.18c.06-1.25.19-2.68.41-4.31s.55-3.51,1-5.61a13.79,13.79,0,0,0,.3-5.13,4.18,4.18,0,0,0-1.58-2.86,4.23,4.23,0,0,0-3.19-.51,12.35,12.35,0,0,0-4.46,2,1.5,1.5,0,0,0-.56,1,16.29,16.29,0,0,0-.23,1.89c0,.73-.08,1.54-.1,2.42s-.06,1.77-.13,2.65a79.64,79.64,0,0,0-.28,8.09,24.85,24.85,0,0,0,.87,6.42,9.87,9.87,0,0,0,2.4,4.36,6.93,6.93,0,0,0,4.36,1.94,10.81,10.81,0,0,0,2.95-.1,13.93,13.93,0,0,0,2.83-.79,14.09,14.09,0,0,0,2.48-1.27,16.16,16.16,0,0,0,1.94-1.51A5,5,0,0,0,73.27,247C73.41,246.43,73.33,246,73,245.74Zm7.09-59.08a1.25,1.25,0,0,0-1.28-.11A4.46,4.46,0,0,0,77,187.91c-1.09,1.22-2.19,1.68-3.29,1.37s-1.95-1.37-2.53-3.21a12.05,12.05,0,0,1-.53-3.11c-.09-1.29-.12-2.66-.1-4.11s.1-2.9.25-4.38.33-2.8.54-4a9.41,9.41,0,0,0-.21-5,4.74,4.74,0,0,0-2.42-2.7,6.77,6.77,0,0,0-4-.38,13.45,13.45,0,0,0-4.9,2,12.15,12.15,0,0,0-2,1.69,20.27,20.27,0,0,0-2.17,2.65q.62-4.14,1.5-8.34c.6-2.81,1.29-5.53,2.07-8.19A15.41,15.41,0,0,0,60,147a4.59,4.59,0,0,0-1.25-3.16,4.33,4.33,0,0,0-3.29-1,8.16,8.16,0,0,0-1,.11,18.12,18.12,0,0,0-4.28,1.29c-.2.1-.42.61-.64,1.53s-.39,1.79-.58,3c0,.19-.07.38-.1.57-.24,1.45-.46,3.07-.67,4.87s-.39,3.64-.56,5.51-.31,3.67-.43,5.41-.21,3.26-.28,4.59c-.1,2.51-.16,5-.16,7.52S46.82,182,47,184s.31,3.75.53,5.12.52,2.21.9,2.48a5.86,5.86,0,0,0,2.73,1.2,6,6,0,0,0,2.42-.13,4.06,4.06,0,0,0,1.68-.89c.41-.39.56-.76.46-1.1a25.86,25.86,0,0,1-.92-5.94,70.51,70.51,0,0,1,.05-7.93,20.48,20.48,0,0,1,.74-2.12,16.18,16.18,0,0,1,1-1.91,15.35,15.35,0,0,1,1-1.48,4.9,4.9,0,0,1,.87-.92,1.62,1.62,0,0,1,1.15-.46c.36,0,.66.36.92,1a11.62,11.62,0,0,1,.61,2.86,47,47,0,0,1,.23,5.2c0,4.35.69,7.62,2.09,9.82a8.76,8.76,0,0,0,6.22,4,10,10,0,0,0,5.25-.25,10.36,10.36,0,0,0,3.88-2.4A6,6,0,0,0,80.24,188C80.42,187.34,80.38,186.91,80.11,186.66Zm-6.43-77.83a8.14,8.14,0,0,0-2.29-3.44,6.8,6.8,0,0,0-3.8-1.56,7.77,7.77,0,0,0-4.08.54,10.83,10.83,0,0,0-3.27,2.27l-1.53,1.68a24.21,24.21,0,0,0-1.63,2.09c.07-.24.15-.47.23-.71s.16-.48.23-.72a10.13,10.13,0,0,0,.41-4.76,4.7,4.7,0,0,0-1.63-2.86,5.2,5.2,0,0,0-3-1,8.4,8.4,0,0,0-3.69.74c-.21.07-.41.58-.62,1.55s-.4,2.21-.58,3.73-.38,3.2-.56,5.07-.34,3.73-.46,5.59-.22,3.62-.31,5.3-.13,3.09-.13,4.21c0,2.41,0,4.88.1,7.39s.17,4.82.29,6.91.27,3.84.45,5.23.4,2.18.64,2.35a5.35,5.35,0,0,0,.54.34,5.14,5.14,0,0,0,1.78.6,6.62,6.62,0,0,0,2.32,0,4.22,4.22,0,0,0,1.74-.74c.44-.34.61-.7.51-1.07-.35-1.46-.63-3-.85-4.53q-.41-2.73-.56-5.67a79,79,0,0,1,.29-11.42q.09-.21.15-.39c0-.12.07-.26.1-.43a32.51,32.51,0,0,1,1.79-6.45,32.12,32.12,0,0,1,2.34-4.8,22.18,22.18,0,0,1,2.35-3.26,19.29,19.29,0,0,1,1.78-1.81c1.06-.85,1.74-.38,2.07,1.4a31.82,31.82,0,0,1-.18,8.39,24.29,24.29,0,0,1-1.07,4.85,17.72,17.72,0,0,1-1.79,3.9,6.55,6.55,0,0,1-2.24,2.29,2.24,2.24,0,0,1-2.4,0,2.79,2.79,0,0,0-1.32-.49.67.67,0,0,0-.62.36,1.19,1.19,0,0,0,0,.82,2.1,2.1,0,0,0,.43.84,5.58,5.58,0,0,0,2.71,1.68,8.19,8.19,0,0,0,3.51.18,12.91,12.91,0,0,0,3.85-1.25,14.79,14.79,0,0,0,3.65-2.58,16.19,16.19,0,0,0,2.93-3.82,15.86,15.86,0,0,0,1.76-5,33.07,33.07,0,0,0,.56-6.4A15.29,15.29,0,0,0,73.68,108.83ZM149.38,79a1.73,1.73,0,0,0-1.8-.14A6.41,6.41,0,0,0,145,80.8q-2.3,2.6-4.64,2c-1.56-.43-2.75-2-3.57-4.54a17.28,17.28,0,0,1-.75-4.39q-.18-2.73-.15-5.8c0-2,.15-4.1.36-6.19s.47-3.94.76-5.58a13.22,13.22,0,0,0-.29-7.13,6.67,6.67,0,0,0-3.42-3.81,9.61,9.61,0,0,0-5.65-.54,19,19,0,0,0-6.91,2.77A16.64,16.64,0,0,0,118,49.92a28.8,28.8,0,0,0-3.06,3.74q.85-5.83,2.12-11.77t2.92-11.56a21.6,21.6,0,0,0,1.11-7.27,6.46,6.46,0,0,0-1.76-4.46,6.16,6.16,0,0,0-4.64-1.41,22.45,22.45,0,0,0-7.53,2q-.44.22-.9,2.16c-.31,1.3-.64,3-1,5s-.65,4.33-.94,6.87-.55,5.14-.79,7.78-.44,5.18-.61,7.63-.3,4.61-.4,6.48q-.21,5.32-.21,10.62t.28,9.61q.3,4.32.76,7.24c.31,1.94.73,3.11,1.26,3.49a8.26,8.26,0,0,0,7.27,1.51,5.55,5.55,0,0,0,2.38-1.26c.58-.55.79-1.07.65-1.55a35.83,35.83,0,0,1-1.3-8.38,98.1,98.1,0,0,1,.07-11.2,28,28,0,0,1,1-3,21.21,21.21,0,0,1,1.33-2.7,24.61,24.61,0,0,1,1.37-2.09,6.7,6.7,0,0,1,1.22-1.29,2.26,2.26,0,0,1,1.62-.65c.51,0,.94.5,1.3,1.37a16.39,16.39,0,0,1,.86,4,64.73,64.73,0,0,1,.32,7.34q0,9.22,3,13.86a12.35,12.35,0,0,0,8.78,5.66,14.26,14.26,0,0,0,7.42-.36A14.48,14.48,0,0,0,147.37,84a8.45,8.45,0,0,0,2.2-3.09C149.83,80,149.77,79.4,149.38,79ZM95.89,16.15c-.53-.43-1.34-.43-2.45,0a10.35,10.35,0,0,0-3.74,3.17,52.2,52.2,0,0,0-4.65,6.73q-2.26,3.86-4.35,8.35t-4,9.5q-1.9,5-3.49,10.19Q70,64.17,67.67,70.4t-3.46,9.47c-.72-3.07-1.47-6.29-2.23-9.65-.67-2.88-1.42-6.07-2.23-9.58s-1.61-7-2.38-10.58Q56,43.86,54.81,38.25a88.58,88.58,0,0,0-2.7-10.08,32.07,32.07,0,0,0-3.52-7.49,10.11,10.11,0,0,0-5.12-4.1,12.33,12.33,0,0,0-3.16-.65,17.7,17.7,0,0,0-3.5.07,9.45,9.45,0,0,0-3,.87,2.54,2.54,0,0,0-1.52,1.73,1.77,1.77,0,0,0,.11,1.15c.17.38.45,1,.83,1.8s.86,2,1.44,3.45,1.25,3.51,2,6.05,1.62,5.74,2.55,9.58,2,8.52,3.06,14A146.7,146.7,0,0,0,45.74,69a50.65,50.65,0,0,0,3.85,9.58,20.09,20.09,0,0,0,4.58,5.83,16.7,16.7,0,0,0,5.58,3.06,11,11,0,0,0,3.13.57,18.17,18.17,0,0,0,2.91-.07A8.5,8.5,0,0,0,68,87.46c.58-.21.92-.44,1-.68.39-1,.84-2.22,1.37-3.64s1.22-3.32,2.09-5.72,1.91-5.45,3.13-9.14S78.3,60,80.12,54.38q3.47-10.73,7.06-19a61.67,61.67,0,0,1,7.27-13.07,8.59,8.59,0,0,0,2-3.82A2.34,2.34,0,0,0,95.89,16.15Zm71.66,239.74a7.54,7.54,0,0,0-2.2-1.82l-.07,0a9.58,9.58,0,0,0-2.73-1l-.43-.09a10.89,10.89,0,0,0-2.06-.22H160a7.4,7.4,0,0,0-2.82.51,5.81,5.81,0,0,0-1.91,1.25,4.22,4.22,0,0,0-1,1.43.47.47,0,0,0,0,.1,2.56,2.56,0,0,0-.2,1.35,3,3,0,0,0,.66,1.51,2.68,2.68,0,0,0,1.2.81,2.23,2.23,0,0,0,1.35,0,2,2,0,0,0,1.12-.79,1.8,1.8,0,0,0-.07-.94,5.73,5.73,0,0,1-.17-1.27c0-.1,0-.2,0-.31a2.72,2.72,0,0,1,.43-1.51,2,2,0,0,1,1.81-.66,1.72,1.72,0,0,1,.46.05,2.63,2.63,0,0,1,1.3,1,2.14,2.14,0,0,1,.36.65,5.69,5.69,0,0,1,.33,2.11,6,6,0,0,1-1,3.34,9.59,9.59,0,0,1-2.37,2.57,3,3,0,0,0-1.37,1.86,2.54,2.54,0,0,0,.28,1.87,2.4,2.4,0,0,0,1.55,1.09,3.39,3.39,0,0,0,2.45-.43,2,2,0,0,0,1-.89,1.32,1.32,0,0,0,.1-1,1.34,1.34,0,0,0-.64-.74,1.44,1.44,0,0,0-1.09-.13.94.94,0,0,0-.46.31,3.1,3.1,0,0,0-.26.41.61.61,0,0,1-.17.25c-.06,0-.12,0-.18-.2s.08-.44.46-.71a13.43,13.43,0,0,1,1.45-.92c.59-.34,1.26-.72,2-1.12a13.87,13.87,0,0,0,2-1.36,7,7,0,0,0,1.51-1.63,3.07,3.07,0,0,0,.53-1.91A4.68,4.68,0,0,0,167.55,255.89Zm-4.21,42.69c-.18-.16-.43-.12-.74.1a4.61,4.61,0,0,0-1,1.25,11.67,11.67,0,0,1-2,2.55,14.07,14.07,0,0,1-5.66,3.31,9.65,9.65,0,0,1-2.93.44,6.12,6.12,0,0,1-2.55-.59,4.06,4.06,0,0,1-1.81-1.79l.2-.1a19.65,19.65,0,0,0,5.82-3.49,19.31,19.31,0,0,0,4-4.79,12.94,12.94,0,0,0,1.79-5.13,6.78,6.78,0,0,0-1-4.54,6.26,6.26,0,0,0-3.08-2.5,9.52,9.52,0,0,0-4.11-.53,14.15,14.15,0,0,0-4.49,1.19,18,18,0,0,0-7.65,6.51,12.44,12.44,0,0,0-1.88,4.71,20.12,20.12,0,0,0-.18,6.43,12.84,12.84,0,0,0,1.76,5,10.2,10.2,0,0,0,3.42,3.4,11.65,11.65,0,0,0,4.79,1.58,12.6,12.6,0,0,0,5-.56,23.38,23.38,0,0,0,5.2-2.32,22.38,22.38,0,0,0,4.41-3.45,10.43,10.43,0,0,0,2.58-3.92,7.7,7.7,0,0,0,.38-1.84A1.11,1.11,0,0,0,163.34,298.58Zm-17.72,2.21a14.32,14.32,0,0,1,0-3.82,37.52,37.52,0,0,1,1.12-5.92,17.06,17.06,0,0,1,1.53-3.8,3.36,3.36,0,0,1,1.64-1.6,1.13,1.13,0,0,1,1.37.66,4.73,4.73,0,0,1,.51,2.7,14.18,14.18,0,0,1-.74,4,18.4,18.4,0,0,1-2,4.26A12.43,12.43,0,0,1,145.62,300.79Zm16.7-20a11.43,11.43,0,0,0-1.09-3.39,28.76,28.76,0,0,0-2.5-4.19,29.58,29.58,0,0,0-3.67-4.23,6.73,6.73,0,0,0-2.32-1.53,7,7,0,0,0-2.32-.41,11.54,11.54,0,0,0-4.54,1,24.78,24.78,0,0,0-6,3.59q-2,1.63-3.29,2.73c-.83.73-1.48,1.34-1.94,1.81a7.45,7.45,0,0,0-.92,1.1c-.15.25-.21.43-.18.53a8.16,8.16,0,0,0,1.08,2.53,4.83,4.83,0,0,0,1.65,1.63,3.12,3.12,0,0,0,2.09.36,5,5,0,0,0,2.48-1.41q1.06-1,2.22-2.19c.76-.78,1.53-1.57,2.29-2.37s1.51-1.59,2.22-2.37,1.36-1.51,1.94-2.19c.78.81,1.61,1.65,2.5,2.52s1.76,1.71,2.62,2.53,1.72,1.58,2.55,2.32,1.58,1.36,2.22,1.88,1.18.94,1.61,1.23.69.4.79.33C162.26,282.35,162.44,281.75,162.32,280.78Zm4.7-30.42a1.23,1.23,0,0,0-1.28-.1,4.42,4.42,0,0,0-1.84,1.35,4.46,4.46,0,0,1-1.78,1.31,2.34,2.34,0,0,1-1.5.07,2,2,0,0,1-.63-.29,5,5,0,0,1-1.9-2.93,12.05,12.05,0,0,1-.53-3.11c-.09-1.29-.12-2.66-.11-4.1s.11-2.91.26-4.39.33-2.8.53-3.95a9.31,9.31,0,0,0-.2-5.05,4.74,4.74,0,0,0-2.42-2.7,6.87,6.87,0,0,0-4-.39,13.51,13.51,0,0,0-4.89,2,11.56,11.56,0,0,0-2,1.68,20.93,20.93,0,0,0-2.16,2.65c.4-2.75.91-5.53,1.5-8.34s1.28-5.53,2.07-8.18a15.44,15.44,0,0,0,.79-5.15,4.61,4.61,0,0,0-1.25-3.17,4.38,4.38,0,0,0-3.29-1,15.85,15.85,0,0,0-5.33,1.4c-.21.11-.42.61-.64,1.53s-.45,2.1-.69,3.55-.46,3.07-.66,4.87-.39,3.64-.56,5.51-.32,3.67-.43,5.4-.22,3.27-.29,4.59q-.15,3.78-.15,7.52t.21,6.81c.13,2,.31,3.75.53,5.13a4.2,4.2,0,0,0,.89,2.47,6,6,0,0,0,2.73,1.2,5.81,5.81,0,0,0,2.42-.13,3.93,3.93,0,0,0,1.69-.89c.41-.39.56-.76.46-1.1a25.24,25.24,0,0,1-.92-5.94,68.22,68.22,0,0,1,.05-7.93,18.22,18.22,0,0,1,.74-2.11,15.6,15.6,0,0,1,.94-1.92,17.4,17.4,0,0,1,1-1.48,4.8,4.8,0,0,1,.87-.91,1.57,1.57,0,0,1,1.15-.46c.35,0,.66.35.91,1a11.43,11.43,0,0,1,.62,2.85,47.13,47.13,0,0,1,.23,5.2c0,4.36.69,7.63,2.09,9.82a8.43,8.43,0,0,0,4,3.39,11,11,0,0,0,2.17.61,12.5,12.5,0,0,0,1.67.21,9,9,0,0,0,3.58-.46c.26-.09.52-.19.77-.3a9.91,9.91,0,0,0,2.87-1.88l.24-.22a5.8,5.8,0,0,0,1.55-2.19C167.33,251.05,167.29,250.61,167,250.36Zm-5.51-57.86a1.45,1.45,0,0,0-1.38-.1,4.52,4.52,0,0,0-1.89,1.35,8,8,0,0,1-2.32,1.79,7.29,7.29,0,0,1-2.55.79,4.67,4.67,0,0,1-2.24-.28,2.15,2.15,0,0,1-1.3-1.48,20.67,20.67,0,0,1-.79-3.9,41.92,41.92,0,0,1-.28-5.08q0-2.75.23-5.79a55.78,55.78,0,0,1,.79-6.09,48.18,48.18,0,0,0,5.35-.28,18.28,18.28,0,0,0,4.08-.84,3.07,3.07,0,0,0,2.35-2.91c0-1.39-.73-3.19-2.3-5.41-.1-.13-.33-.13-.68,0l-1.53.62c-.67.27-1.47.58-2.4.92s-2,.66-3.24,1a2.71,2.71,0,0,0,.15-.46,2.23,2.23,0,0,1,.16-.4,15.8,15.8,0,0,0,1-5.13,4.55,4.55,0,0,0-1.12-3.24,4.36,4.36,0,0,0-3.24-1.12,16.27,16.27,0,0,0-5.35,1.17c-.18.07-.34.39-.49.95a19.11,19.11,0,0,0-.43,2.22c-.14.91-.26,2-.36,3.16s-.2,2.45-.31,3.77l-3.06-.1a7.65,7.65,0,0,0-1.32,0,3.41,3.41,0,0,0-.49.87,2,2,0,0,0-.12.94,2.35,2.35,0,0,0,.4,1,4,4,0,0,0,1.13,1.05,6.72,6.72,0,0,0,1.4.74,15.16,15.16,0,0,0,1.86.58c-.1,2-.15,4-.15,5.71q-.06,4.44,0,8.5a38.05,38.05,0,0,0,.69,7.19,13.11,13.11,0,0,0,2.06,5.12,5.66,5.66,0,0,0,4.18,2.3,9.66,9.66,0,0,0,3.17-.13,13.3,13.3,0,0,0,3.13-1.1,19.23,19.23,0,0,0,3-1.88,34.73,34.73,0,0,0,2.9-2.5,5.25,5.25,0,0,0,1.51-2.2A1.22,1.22,0,0,0,161.51,192.5Zm-43.22,70.34a1.44,1.44,0,0,0-1.38-.11,4.47,4.47,0,0,0-1.89,1.36,8.12,8.12,0,0,1-2.32,1.78,7.08,7.08,0,0,1-2.55.79,4.55,4.55,0,0,1-2.24-.28,2.13,2.13,0,0,1-1.3-1.48,21.32,21.32,0,0,1-.79-3.9,41.87,41.87,0,0,1-.28-5.07q0-2.76.23-5.79a56,56,0,0,1,.79-6.1,48.18,48.18,0,0,0,5.35-.28,17.21,17.21,0,0,0,4.08-.84,3,3,0,0,0,2.35-2.91c0-1.39-.73-3.19-2.3-5.4-.1-.14-.33-.14-.68,0s-.87.34-1.53.61-1.47.58-2.4.92-2,.66-3.24,1a3,3,0,0,0,.15-.46,2.31,2.31,0,0,1,.16-.41,15.76,15.76,0,0,0,1-5.13,4.51,4.51,0,0,0-1.12-3.23,3,3,0,0,0-.81-.6,5.08,5.08,0,0,0-2.43-.53,11.78,11.78,0,0,0-2.79.39,20.86,20.86,0,0,0-2.56.79c-.18.07-.34.38-.49.94a19.11,19.11,0,0,0-.43,2.22c-.14.92-.26,2-.36,3.16s-.2,2.45-.31,3.77c-1.19,0-2.21-.06-3-.1a7.74,7.74,0,0,0-1.33,0,3.58,3.58,0,0,0-.49.87,2,2,0,0,0-.12.94,2.26,2.26,0,0,0,.4,1,4,4,0,0,0,1.13,1.05,6.28,6.28,0,0,0,1.4.74,15.16,15.16,0,0,0,1.86.58c-.1,2-.15,3.95-.15,5.72,0,2.95,0,5.79,0,8.49a38.05,38.05,0,0,0,.69,7.19,13.11,13.11,0,0,0,2.06,5.12,5.62,5.62,0,0,0,4.18,2.3,9.4,9.4,0,0,0,3.17-.13,13.26,13.26,0,0,0,3.13-1.09,18.59,18.59,0,0,0,3-1.89,33,33,0,0,0,2.9-2.5,5.3,5.3,0,0,0,1.51-2.19C118.67,263.52,118.6,263.09,118.29,262.84Zm-9.21-40.14a4.58,4.58,0,0,0-1.25-1.65,2.71,2.71,0,0,0-1.37-.62,3.42,3.42,0,0,0-1.38.13,8.78,8.78,0,0,0-1.3.51,6,6,0,0,0-2,1.43,3.26,3.26,0,0,0-.76,1.58,2.86,2.86,0,0,0,.2,1.58,4.12,4.12,0,0,0,.92,1.33l.17.15a4.61,4.61,0,0,0,1.18.74,3.46,3.46,0,0,0,1.58.28,4.36,4.36,0,0,0,1.89-.54c.2-.11.39-.22.57-.34a5.41,5.41,0,0,0,1-.85,3.7,3.7,0,0,0,.84-1.69A3.21,3.21,0,0,0,109.08,222.7Zm15.81-13.31a1.51,1.51,0,0,0-1.37-.1,4.1,4.1,0,0,0-1.89,1.33,5.29,5.29,0,0,1-2,1.48,3.53,3.53,0,0,1-1.88.17,3.42,3.42,0,0,1-1.61-.81A4.51,4.51,0,0,1,115,209.9a8.54,8.54,0,0,1-.74-3,31.32,31.32,0,0,1-.1-4c0-1.45.16-2.89.33-4.34s.36-2.74.56-3.9a14.83,14.83,0,0,0,.18-5.15,4.44,4.44,0,0,0-1.58-2.91,4,4,0,0,0-3.14-.51,12.7,12.7,0,0,0-4.44,2,2.74,2.74,0,0,0-.51,1.28,7.82,7.82,0,0,0-4.28-.59,11.25,11.25,0,0,0-4.67,1.71,14.28,14.28,0,0,0-4,4,15.47,15.47,0,0,0-2.45,6.17,22.6,22.6,0,0,0-.3,6.37A14.66,14.66,0,0,0,91.18,212,9.57,9.57,0,0,0,94,215.44,8.29,8.29,0,0,0,98.07,217a8,8,0,0,0,4.08-.51,10.51,10.51,0,0,0,3.26-2.24,8.87,8.87,0,0,0,1.33-2,8.62,8.62,0,0,0,6.52,4.59,8.35,8.35,0,0,0,3,0,12.49,12.49,0,0,0,2.88-.89,14.41,14.41,0,0,0,2.55-1.45,15.76,15.76,0,0,0,1.94-1.61,5.25,5.25,0,0,0,1.5-2.19C125.27,210.06,125.2,209.63,124.89,209.39Zm-19.81-15.12c0,1-.09,2-.1,3.09s0,2.07,0,3.06v2.65q0,.62,0,1.17c0,.38,0,.75.07,1.12s-.09.87-.17,1.48-.21,1.25-.36,1.91a11.94,11.94,0,0,1-.61,1.92,4,4,0,0,1-1,1.43,1.48,1.48,0,0,1-1.68.35,3.67,3.67,0,0,1-1.76-1.66,10.41,10.41,0,0,1-1.22-3.44,16.29,16.29,0,0,1-.13-5,23.24,23.24,0,0,1,1-4.69,15.6,15.6,0,0,1,1.68-3.64,6.84,6.84,0,0,1,2.09-2.2,2.71,2.71,0,0,1,2.3-.33C105.19,192.34,105.13,193.27,105.08,194.27ZM118.24,184a11.49,11.49,0,0,0-1.1-3.39,30.07,30.07,0,0,0-6.17-8.42,6.34,6.34,0,0,0-4.64-1.94,11.54,11.54,0,0,0-4.54,1,24.53,24.53,0,0,0-6,3.6c-1.36,1.08-2.46,2-3.29,2.72s-1.48,1.34-1.94,1.81a7.75,7.75,0,0,0-.91,1.1c-.16.26-.22.43-.18.54a8,8,0,0,0,1.07,2.52,4.77,4.77,0,0,0,1.66,1.63,3.11,3.11,0,0,0,2.09.36,5,5,0,0,0,2.47-1.4c.71-.68,1.45-1.41,2.22-2.2s1.53-1.57,2.29-2.37,1.51-1.59,2.22-2.37,1.36-1.51,1.94-2.19c.78.81,1.61,1.66,2.5,2.52s1.76,1.71,2.63,2.53,1.71,1.59,2.55,2.32,1.57,1.36,2.22,1.88a17.29,17.29,0,0,0,1.6,1.2c.43.28.69.39.79.36C118.18,185.59,118.36,185,118.24,184Zm4-38.45a.61.61,0,0,0-.74-.46,3.86,3.86,0,0,0-1.3.59c-.51.32-1.08.69-1.71,1.12s-1.27.81-1.91,1.15a21.93,21.93,0,0,0,1.22-5.54,17.87,17.87,0,0,0-.51-5.94,6.71,6.71,0,0,0-1.4-2.8,6,6,0,0,0-2.27-1.61,8.54,8.54,0,0,0-2.93-.59,14.39,14.39,0,0,0-3.34.31,4.11,4.11,0,0,0-2.45,1.58,9.66,9.66,0,0,0-1.66,3.21,15.15,15.15,0,0,0-.64,4.08,13.94,13.94,0,0,0,.54,4.21A10.09,10.09,0,0,0,105,148.5a7.42,7.42,0,0,0,3.47,2.32,25.47,25.47,0,0,1-2.19,4.34,10.77,10.77,0,0,1-2.4,2.75c-.85.61-1.63.37-2.35-.74a11.9,11.9,0,0,1-1.47-4.87,37.29,37.29,0,0,1-.29-5.76,23.94,23.94,0,0,1,.69-5.31,14,14,0,0,0,.49-4.64,5,5,0,0,0-1.28-3.16,4.4,4.4,0,0,0-3.13-1.2,12,12,0,0,0-5.05,1.25c-.27.14-.53.88-.77,2.22a37.86,37.86,0,0,0-.48,5c-.09,2-.06,4.2.07,6.58a43.78,43.78,0,0,0,.92,6.79,9.88,9.88,0,0,0,3,5.5,9.37,9.37,0,0,0,5.2,2.35,8.58,8.58,0,0,0,4-.48,18,18,0,0,0,4.33-2.25,25.12,25.12,0,0,0,4.16-3.67,23.48,23.48,0,0,0,3.41-4.87,13.06,13.06,0,0,0,2.73-1.12,16.23,16.23,0,0,0,2.27-1.48,8.84,8.84,0,0,0,1.51-1.46C122.16,146.16,122.29,145.81,122.19,145.57Zm-12.24,0a20.54,20.54,0,0,1-.61,2.8,6.4,6.4,0,0,1-3.14-3.06,11.23,11.23,0,0,1-1.2-4.36,11.51,11.51,0,0,1,.46-4.23,4.7,4.7,0,0,1,1.84-2.73c.71-.44,1.37,0,2,1.33s.89,3.81.89,7.44A19.26,19.26,0,0,1,110,145.52Zm57.6,110.37a7.54,7.54,0,0,0-2.2-1.82l.24-.22a5.8,5.8,0,0,0,1.55-2.19c.19-.61.15-1-.12-1.3a1.23,1.23,0,0,0-1.28-.1,4.42,4.42,0,0,0-1.84,1.35,4.46,4.46,0,0,1-1.78,1.31,10.89,10.89,0,0,0-2.06-.22H160a5,5,0,0,1-1.9-2.93,12.05,12.05,0,0,1-.53-3.11c-.09-1.29-.12-2.66-.11-4.1s.11-2.91.26-4.39.33-2.8.53-3.95a9.31,9.31,0,0,0-.2-5.05,4.74,4.74,0,0,0-2.42-2.7,6.87,6.87,0,0,0-4-.39,13.51,13.51,0,0,0-4.89,2,11.56,11.56,0,0,0-2,1.68,20.93,20.93,0,0,0-2.16,2.65c.4-2.75.91-5.53,1.5-8.34s1.28-5.53,2.07-8.18a15.44,15.44,0,0,0,.79-5.15,4.61,4.61,0,0,0-1.25-3.17,4.38,4.38,0,0,0-3.29-1,15.85,15.85,0,0,0-5.33,1.4c-.21.11-.42.61-.64,1.53s-.45,2.1-.69,3.55-.46,3.07-.66,4.87-.39,3.64-.56,5.51-.32,3.67-.43,5.4-.22,3.27-.29,4.59q-.15,3.78-.15,7.52t.21,6.81c.13,2,.31,3.75.53,5.13a4.2,4.2,0,0,0,.89,2.47,6,6,0,0,0,2.73,1.2,5.81,5.81,0,0,0,2.42-.13,3.93,3.93,0,0,0,1.69-.89c.41-.39.56-.76.46-1.1a25.24,25.24,0,0,1-.92-5.94,68.22,68.22,0,0,1,.05-7.93,18.22,18.22,0,0,1,.74-2.11,15.6,15.6,0,0,1,.94-1.92,17.4,17.4,0,0,1,1-1.48,4.8,4.8,0,0,1,.87-.91,1.57,1.57,0,0,1,1.15-.46c.35,0,.66.35.91,1a11.43,11.43,0,0,1,.62,2.85,47.13,47.13,0,0,1,.23,5.2c0,4.36.69,7.63,2.09,9.82a8.43,8.43,0,0,0,4,3.39.47.47,0,0,0,0,.1,2.56,2.56,0,0,0-.2,1.35,3,3,0,0,0,.66,1.51,2.68,2.68,0,0,0,1.2.81,2.23,2.23,0,0,0,1.35,0,2,2,0,0,0,1.12-.79,1.8,1.8,0,0,0-.07-.94,5.73,5.73,0,0,1-.17-1.27,9,9,0,0,0,3.58-.46c.26-.09.52-.19.77-.3a5.69,5.69,0,0,1,.33,2.11,6,6,0,0,1-1,3.34,9.59,9.59,0,0,1-2.37,2.57,3,3,0,0,0-1.37,1.86,2.54,2.54,0,0,0,.28,1.87,2.4,2.4,0,0,0,1.55,1.09,3.39,3.39,0,0,0,2.45-.43,2,2,0,0,0,1-.89,1.32,1.32,0,0,0,.1-1,1.34,1.34,0,0,0-.64-.74,1.44,1.44,0,0,0-1.09-.13.94.94,0,0,0-.46.31,3.1,3.1,0,0,0-.26.41.61.61,0,0,1-.17.25c-.06,0-.12,0-.18-.2s.08-.44.46-.71a13.43,13.43,0,0,1,1.45-.92c.59-.34,1.26-.72,2-1.12a13.87,13.87,0,0,0,2-1.36,7,7,0,0,0,1.51-1.63,3.07,3.07,0,0,0,.53-1.91A4.68,4.68,0,0,0,167.55,255.89Zm-5,42.79a4.61,4.61,0,0,0-1,1.25,11.67,11.67,0,0,1-2,2.55,14.07,14.07,0,0,1-5.66,3.31,9.65,9.65,0,0,1-2.93.44,6.12,6.12,0,0,1-2.55-.59,4.06,4.06,0,0,1-1.81-1.79l.2-.1a19.65,19.65,0,0,0,5.82-3.49,19.31,19.31,0,0,0,4-4.79,12.94,12.94,0,0,0,1.79-5.13,6.78,6.78,0,0,0-1-4.54,6.26,6.26,0,0,0-3.08-2.5,9.52,9.52,0,0,0-4.11-.53,14.15,14.15,0,0,0-4.49,1.19,18,18,0,0,0-7.65,6.51,12.44,12.44,0,0,0-1.88,4.71,20.12,20.12,0,0,0-.18,6.43,12.84,12.84,0,0,0,1.76,5,10.2,10.2,0,0,0,3.42,3.4,11.65,11.65,0,0,0,4.79,1.58,12.6,12.6,0,0,0,5-.56,23.38,23.38,0,0,0,5.2-2.32,22.38,22.38,0,0,0,4.41-3.45,10.43,10.43,0,0,0,2.58-3.92,7.7,7.7,0,0,0,.38-1.84,1.11,1.11,0,0,0-.26-.94C163.16,298.42,162.91,298.46,162.6,298.68Zm-17,2.11a14.32,14.32,0,0,1,0-3.82,37.52,37.52,0,0,1,1.12-5.92,17.06,17.06,0,0,1,1.53-3.8,3.36,3.36,0,0,1,1.64-1.6,1.13,1.13,0,0,1,1.37.66,4.73,4.73,0,0,1,.51,2.7,14.18,14.18,0,0,1-.74,4,18.4,18.4,0,0,1-2,4.26A12.43,12.43,0,0,1,145.62,300.79Zm-7.27-18.48a5,5,0,0,0,2.48-1.41q1.06-1,2.22-2.19c.76-.78,1.53-1.57,2.29-2.37s1.51-1.59,2.22-2.37,1.36-1.51,1.94-2.19c.78.81,1.61,1.65,2.5,2.52s1.76,1.71,2.62,2.53,1.72,1.58,2.55,2.32,1.58,1.36,2.22,1.88,1.18.94,1.61,1.23.69.4.79.33c.47-.24.65-.84.53-1.81a11.43,11.43,0,0,0-1.09-3.39,28.76,28.76,0,0,0-2.5-4.19,29.58,29.58,0,0,0-3.67-4.23,6.73,6.73,0,0,0-2.32-1.53,7,7,0,0,0-2.32-.41,11.54,11.54,0,0,0-4.54,1,24.78,24.78,0,0,0-6,3.59q-2,1.63-3.29,2.73c-.83.73-1.48,1.34-1.94,1.81a7.45,7.45,0,0,0-.92,1.1c-.15.25-.21.43-.18.53a8.16,8.16,0,0,0,1.08,2.53,4.83,4.83,0,0,0,1.65,1.63A3.12,3.12,0,0,0,138.35,282.31ZM143,157.59c-.18.07-.34.39-.49.95a19.11,19.11,0,0,0-.43,2.22c-.14.91-.26,2-.36,3.16s-.2,2.45-.31,3.77l-3.06-.1a7.65,7.65,0,0,0-1.32,0,3.41,3.41,0,0,0-.49.87,2,2,0,0,0-.12.94,2.35,2.35,0,0,0,.4,1,4,4,0,0,0,1.13,1.05,6.72,6.72,0,0,0,1.4.74,15.16,15.16,0,0,0,1.86.58c-.1,2-.15,4-.15,5.71q-.06,4.44,0,8.5a38.05,38.05,0,0,0,.69,7.19,13.11,13.11,0,0,0,2.06,5.12,5.66,5.66,0,0,0,4.18,2.3,9.66,9.66,0,0,0,3.17-.13,13.3,13.3,0,0,0,3.13-1.1,19.23,19.23,0,0,0,3-1.88,34.73,34.73,0,0,0,2.9-2.5,5.25,5.25,0,0,0,1.51-2.2,1.22,1.22,0,0,0-.23-1.3,1.45,1.45,0,0,0-1.38-.1,4.52,4.52,0,0,0-1.89,1.35,8,8,0,0,1-2.32,1.79,7.29,7.29,0,0,1-2.55.79,4.67,4.67,0,0,1-2.24-.28,2.15,2.15,0,0,1-1.3-1.48,20.67,20.67,0,0,1-.79-3.9,41.92,41.92,0,0,1-.28-5.08q0-2.75.23-5.79a55.78,55.78,0,0,1,.79-6.09,48.18,48.18,0,0,0,5.35-.28,18.28,18.28,0,0,0,4.08-.84,3.07,3.07,0,0,0,2.35-2.91c0-1.39-.73-3.19-2.3-5.41-.1-.13-.33-.13-.68,0l-1.53.62c-.67.27-1.47.58-2.4.92s-2,.66-3.24,1a2.71,2.71,0,0,0,.15-.46,2.23,2.23,0,0,1,.16-.4,15.8,15.8,0,0,0,1-5.13,4.55,4.55,0,0,0-1.12-3.24,4.36,4.36,0,0,0-3.24-1.12A16.27,16.27,0,0,0,143,157.59Zm-1.1-70.23A14.48,14.48,0,0,0,147.37,84a8.45,8.45,0,0,0,2.2-3.09c.26-.87.2-1.48-.19-1.84a1.73,1.73,0,0,0-1.8-.14A6.41,6.41,0,0,0,145,80.8q-2.3,2.6-4.64,2c-1.56-.43-2.75-2-3.57-4.54a17.28,17.28,0,0,1-.75-4.39q-.18-2.73-.15-5.8c0-2,.15-4.1.36-6.19s.47-3.94.76-5.58a13.22,13.22,0,0,0-.29-7.13,6.67,6.67,0,0,0-3.42-3.81,9.61,9.61,0,0,0-5.65-.54,19,19,0,0,0-6.91,2.77A16.64,16.64,0,0,0,118,49.92a28.8,28.8,0,0,0-3.06,3.74q.85-5.83,2.12-11.77t2.92-11.56a21.6,21.6,0,0,0,1.11-7.27,6.46,6.46,0,0,0-1.76-4.46,6.16,6.16,0,0,0-4.64-1.41,22.45,22.45,0,0,0-7.53,2q-.44.22-.9,2.16c-.31,1.3-.64,3-1,5s-.65,4.33-.94,6.87-.55,5.14-.79,7.78-.44,5.18-.61,7.63-.3,4.61-.4,6.48q-.21,5.32-.21,10.62t.28,9.61q.3,4.32.76,7.24c.31,1.94.73,3.11,1.26,3.49a8.26,8.26,0,0,0,7.27,1.51,5.55,5.55,0,0,0,2.38-1.26c.58-.55.79-1.07.65-1.55a35.83,35.83,0,0,1-1.3-8.38,98.1,98.1,0,0,1,.07-11.2,28,28,0,0,1,1-3,21.21,21.21,0,0,1,1.33-2.7,24.61,24.61,0,0,1,1.37-2.09,6.7,6.7,0,0,1,1.22-1.29,2.26,2.26,0,0,1,1.62-.65c.51,0,.94.5,1.3,1.37a16.39,16.39,0,0,1,.86,4,64.73,64.73,0,0,1,.32,7.34q0,9.22,3,13.86a12.35,12.35,0,0,0,8.78,5.66A14.26,14.26,0,0,0,141.9,87.36ZM123.52,209.29a4.1,4.1,0,0,0-1.89,1.33,5.29,5.29,0,0,1-2,1.48,3.53,3.53,0,0,1-1.88.17,3.42,3.42,0,0,1-1.61-.81A4.51,4.51,0,0,1,115,209.9a8.54,8.54,0,0,1-.74-3,31.32,31.32,0,0,1-.1-4c0-1.45.16-2.89.33-4.34s.36-2.74.56-3.9a14.83,14.83,0,0,0,.18-5.15,4.44,4.44,0,0,0-1.58-2.91,4,4,0,0,0-3.14-.51,12.7,12.7,0,0,0-4.44,2,2.74,2.74,0,0,0-.51,1.28,7.82,7.82,0,0,0-4.28-.59,11.25,11.25,0,0,0-4.67,1.71,14.28,14.28,0,0,0-4,4,15.47,15.47,0,0,0-2.45,6.17,22.6,22.6,0,0,0-.3,6.37A14.66,14.66,0,0,0,91.18,212,9.57,9.57,0,0,0,94,215.44,8.29,8.29,0,0,0,98.07,217a8,8,0,0,0,4.08-.51,10.51,10.51,0,0,0,3.26-2.24,8.87,8.87,0,0,0,1.33-2,8.62,8.62,0,0,0,6.52,4.59,8.35,8.35,0,0,0,3,0,12.49,12.49,0,0,0,2.88-.89,14.41,14.41,0,0,0,2.55-1.45,15.76,15.76,0,0,0,1.94-1.61,5.25,5.25,0,0,0,1.5-2.19c.15-.61.08-1-.23-1.28A1.51,1.51,0,0,0,123.52,209.29Zm-18.44-15c0,1-.09,2-.1,3.09s0,2.07,0,3.06v2.65q0,.62,0,1.17c0,.38,0,.75.07,1.12s-.09.87-.17,1.48-.21,1.25-.36,1.91a11.94,11.94,0,0,1-.61,1.92,4,4,0,0,1-1,1.43,1.48,1.48,0,0,1-1.68.35,3.67,3.67,0,0,1-1.76-1.66,10.41,10.41,0,0,1-1.22-3.44,16.29,16.29,0,0,1-.13-5,23.24,23.24,0,0,1,1-4.69,15.6,15.6,0,0,1,1.68-3.64,6.84,6.84,0,0,1,2.09-2.2,2.71,2.71,0,0,1,2.3-.33C105.19,192.34,105.13,193.27,105.08,194.27ZM90.72,135.7a37.86,37.86,0,0,0-.48,5c-.09,2-.06,4.2.07,6.58a43.78,43.78,0,0,0,.92,6.79,9.88,9.88,0,0,0,3,5.5,9.37,9.37,0,0,0,5.2,2.35,8.58,8.58,0,0,0,4-.48,18,18,0,0,0,4.33-2.25,25.12,25.12,0,0,0,4.16-3.67,23.48,23.48,0,0,0,3.41-4.87,13.06,13.06,0,0,0,2.73-1.12,16.23,16.23,0,0,0,2.27-1.48,8.84,8.84,0,0,0,1.51-1.46c.35-.45.48-.8.38-1a.61.61,0,0,0-.74-.46,3.86,3.86,0,0,0-1.3.59c-.51.32-1.08.69-1.71,1.12s-1.27.81-1.91,1.15a21.93,21.93,0,0,0,1.22-5.54,17.87,17.87,0,0,0-.51-5.94,6.71,6.71,0,0,0-1.4-2.8,6,6,0,0,0-2.27-1.61,8.54,8.54,0,0,0-2.93-.59,14.39,14.39,0,0,0-3.34.31,4.11,4.11,0,0,0-2.45,1.58,9.66,9.66,0,0,0-1.66,3.21,15.15,15.15,0,0,0-.64,4.08,13.94,13.94,0,0,0,.54,4.21A10.09,10.09,0,0,0,105,148.5a7.42,7.42,0,0,0,3.47,2.32,25.47,25.47,0,0,1-2.19,4.34,10.77,10.77,0,0,1-2.4,2.75c-.85.61-1.63.37-2.35-.74a11.9,11.9,0,0,1-1.47-4.87,37.29,37.29,0,0,1-.29-5.76,23.94,23.94,0,0,1,.69-5.31,14,14,0,0,0,.49-4.64,5,5,0,0,0-1.28-3.16,4.4,4.4,0,0,0-3.13-1.2,12,12,0,0,0-5.05,1.25C91.22,133.62,91,134.36,90.72,135.7Zm15.48,9.56a11.23,11.23,0,0,1-1.2-4.36,11.51,11.51,0,0,1,.46-4.23,4.7,4.7,0,0,1,1.84-2.73c.71-.44,1.37,0,2,1.33s.89,3.81.89,7.44a19.26,19.26,0,0,1-.2,2.81,20.54,20.54,0,0,1-.61,2.8A6.4,6.4,0,0,1,106.2,145.26Zm10.71,117.47a4.47,4.47,0,0,0-1.89,1.36,8.12,8.12,0,0,1-2.32,1.78,7.08,7.08,0,0,1-2.55.79,4.55,4.55,0,0,1-2.24-.28,2.13,2.13,0,0,1-1.3-1.48,21.32,21.32,0,0,1-.79-3.9,41.87,41.87,0,0,1-.28-5.07q0-2.76.23-5.79a56,56,0,0,1,.79-6.1,48.18,48.18,0,0,0,5.35-.28,17.21,17.21,0,0,0,4.08-.84,3,3,0,0,0,2.35-2.91c0-1.39-.73-3.19-2.3-5.4-.1-.14-.33-.14-.68,0s-.87.34-1.53.61-1.47.58-2.4.92-2,.66-3.24,1a3,3,0,0,0,.15-.46,2.31,2.31,0,0,1,.16-.41,15.76,15.76,0,0,0,1-5.13,4.51,4.51,0,0,0-1.12-3.23,3,3,0,0,0-.81-.6,5.41,5.41,0,0,0,1-.85,3.7,3.7,0,0,0,.84-1.69,3.21,3.21,0,0,0-.31-2,4.58,4.58,0,0,0-1.25-1.65,2.71,2.71,0,0,0-1.37-.62,3.42,3.42,0,0,0-1.38.13,8.78,8.78,0,0,0-1.3.51,6,6,0,0,0-2,1.43,3.26,3.26,0,0,0-.76,1.58,2.86,2.86,0,0,0,.2,1.58,4.12,4.12,0,0,0,.92,1.33l.17.15a20.86,20.86,0,0,0-2.56.79c-.18.07-.34.38-.49.94a19.11,19.11,0,0,0-.43,2.22c-.14.92-.26,2-.36,3.16s-.2,2.45-.31,3.77c-1.19,0-2.21-.06-3-.1a7.74,7.74,0,0,0-1.33,0,3.58,3.58,0,0,0-.49.87,2,2,0,0,0-.12.94,2.26,2.26,0,0,0,.4,1,4,4,0,0,0,1.13,1.05,6.28,6.28,0,0,0,1.4.74,15.16,15.16,0,0,0,1.86.58c-.1,2-.15,3.95-.15,5.72,0,2.95,0,5.79,0,8.49a38.05,38.05,0,0,0,.69,7.19,13.11,13.11,0,0,0,2.06,5.12,5.62,5.62,0,0,0,4.18,2.3,9.4,9.4,0,0,0,3.17-.13,13.26,13.26,0,0,0,3.13-1.09,18.59,18.59,0,0,0,3-1.89,33,33,0,0,0,2.9-2.5,5.3,5.3,0,0,0,1.51-2.19c.15-.62.08-1.05-.23-1.3A1.44,1.44,0,0,0,116.91,262.73ZM92.18,185.19a3.11,3.11,0,0,0,2.09.36,5,5,0,0,0,2.47-1.4c.71-.68,1.45-1.41,2.22-2.2s1.53-1.57,2.29-2.37,1.51-1.59,2.22-2.37,1.36-1.51,1.94-2.19c.78.81,1.61,1.66,2.5,2.52s1.76,1.71,2.63,2.53,1.71,1.59,2.55,2.32,1.57,1.36,2.22,1.88a17.29,17.29,0,0,0,1.6,1.2c.43.28.69.39.79.36.48-.24.66-.84.54-1.81a11.49,11.49,0,0,0-1.1-3.39,30.07,30.07,0,0,0-6.17-8.42,6.34,6.34,0,0,0-4.64-1.94,11.54,11.54,0,0,0-4.54,1,24.53,24.53,0,0,0-6,3.6c-1.36,1.08-2.46,2-3.29,2.72s-1.48,1.34-1.94,1.81a7.75,7.75,0,0,0-.91,1.1c-.16.26-.22.43-.18.54a8,8,0,0,0,1.07,2.52A4.77,4.77,0,0,0,92.18,185.19ZM96.43,18.45a2.34,2.34,0,0,0-.54-2.3c-.53-.43-1.34-.43-2.45,0a10.35,10.35,0,0,0-3.74,3.17,52.2,52.2,0,0,0-4.65,6.73q-2.26,3.86-4.35,8.35t-4,9.5q-1.9,5-3.49,10.19Q70,64.17,67.67,70.4t-3.46,9.47c-.72-3.07-1.47-6.29-2.23-9.65-.67-2.88-1.42-6.07-2.23-9.58s-1.61-7-2.38-10.58Q56,43.86,54.81,38.25a88.58,88.58,0,0,0-2.7-10.08,32.07,32.07,0,0,0-3.52-7.49,10.11,10.11,0,0,0-5.12-4.1,12.33,12.33,0,0,0-3.16-.65,17.7,17.7,0,0,0-3.5.07,9.45,9.45,0,0,0-3,.87,2.54,2.54,0,0,0-1.52,1.73,1.77,1.77,0,0,0,.11,1.15c.17.38.45,1,.83,1.8s.86,2,1.44,3.45,1.25,3.51,2,6.05,1.62,5.74,2.55,9.58,2,8.52,3.06,14A146.7,146.7,0,0,0,45.74,69a50.65,50.65,0,0,0,3.85,9.58,20.09,20.09,0,0,0,4.58,5.83,16.7,16.7,0,0,0,5.58,3.06,11,11,0,0,0,3.13.57,18.17,18.17,0,0,0,2.91-.07A8.5,8.5,0,0,0,68,87.46c.58-.21.92-.44,1-.68.39-1,.84-2.22,1.37-3.64s1.22-3.32,2.09-5.72,1.91-5.45,3.13-9.14S78.3,60,80.12,54.38q3.47-10.73,7.06-19a61.67,61.67,0,0,1,7.27-13.07A8.59,8.59,0,0,0,96.43,18.45Zm-17.6,168.1A4.46,4.46,0,0,0,77,187.91c-1.09,1.22-2.19,1.68-3.29,1.37s-1.95-1.37-2.53-3.21a12.05,12.05,0,0,1-.53-3.11c-.09-1.29-.12-2.66-.1-4.11s.1-2.9.25-4.38.33-2.8.54-4a9.41,9.41,0,0,0-.21-5,4.74,4.74,0,0,0-2.42-2.7,6.77,6.77,0,0,0-4-.38,13.45,13.45,0,0,0-4.9,2,12.15,12.15,0,0,0-2,1.69,20.27,20.27,0,0,0-2.17,2.65q.62-4.14,1.5-8.34c.6-2.81,1.29-5.53,2.07-8.19A15.41,15.41,0,0,0,60,147a4.59,4.59,0,0,0-1.25-3.16,4.33,4.33,0,0,0-3.29-1,8.16,8.16,0,0,0-1,.11q-.41-2.73-.56-5.67a79,79,0,0,1,.29-11.42q.09-.21.15-.39c0-.12.07-.26.1-.43a32.51,32.51,0,0,1,1.79-6.45,32.12,32.12,0,0,1,2.34-4.8,22.18,22.18,0,0,1,2.35-3.26,19.29,19.29,0,0,1,1.78-1.81c1.06-.85,1.74-.38,2.07,1.4a31.82,31.82,0,0,1-.18,8.39,24.29,24.29,0,0,1-1.07,4.85,17.72,17.72,0,0,1-1.79,3.9,6.55,6.55,0,0,1-2.24,2.29,2.24,2.24,0,0,1-2.4,0,2.79,2.79,0,0,0-1.32-.49.67.67,0,0,0-.62.36,1.19,1.19,0,0,0,0,.82,2.1,2.1,0,0,0,.43.84,5.58,5.58,0,0,0,2.71,1.68,8.19,8.19,0,0,0,3.51.18,12.91,12.91,0,0,0,3.85-1.25,14.79,14.79,0,0,0,3.65-2.58,16.19,16.19,0,0,0,2.93-3.82,15.86,15.86,0,0,0,1.76-5,33.07,33.07,0,0,0,.56-6.4,15.29,15.29,0,0,0-.84-5.08,8.14,8.14,0,0,0-2.29-3.44,6.8,6.8,0,0,0-3.8-1.56,7.77,7.77,0,0,0-4.08.54,10.83,10.83,0,0,0-3.27,2.27l-1.53,1.68a24.21,24.21,0,0,0-1.63,2.09c.07-.24.15-.47.23-.71s.16-.48.23-.72a10.13,10.13,0,0,0,.41-4.76,4.7,4.7,0,0,0-1.63-2.86,5.2,5.2,0,0,0-3-1,8.4,8.4,0,0,0-3.69.74c-.21.07-.41.58-.62,1.55s-.4,2.21-.58,3.73-.38,3.2-.56,5.07-.34,3.73-.46,5.59-.22,3.62-.31,5.3-.13,3.09-.13,4.21c0,2.41,0,4.88.1,7.39s.17,4.82.29,6.91.27,3.84.45,5.23.4,2.18.64,2.35a5.35,5.35,0,0,0,.54.34c0,.19-.07.38-.1.57-.24,1.45-.46,3.07-.67,4.87s-.39,3.64-.56,5.51-.31,3.67-.43,5.41-.21,3.26-.28,4.59c-.1,2.51-.16,5-.16,7.52S46.82,182,47,184s.31,3.75.53,5.12.52,2.21.9,2.48a5.86,5.86,0,0,0,2.73,1.2,6,6,0,0,0,2.42-.13,4.06,4.06,0,0,0,1.68-.89c.41-.39.56-.76.46-1.1a25.86,25.86,0,0,1-.92-5.94,70.51,70.51,0,0,1,.05-7.93,20.48,20.48,0,0,1,.74-2.12,16.18,16.18,0,0,1,1-1.91,15.35,15.35,0,0,1,1-1.48,4.9,4.9,0,0,1,.87-.92,1.62,1.62,0,0,1,1.15-.46c.36,0,.66.36.92,1a11.62,11.62,0,0,1,.61,2.86,47,47,0,0,1,.23,5.2c0,4.35.69,7.62,2.09,9.82a8.76,8.76,0,0,0,6.22,4,10,10,0,0,0,5.25-.25,10.36,10.36,0,0,0,3.88-2.4A6,6,0,0,0,80.24,188c.18-.62.14-1.05-.13-1.3A1.25,1.25,0,0,0,78.83,186.55Zm-7.19,59.09A4.27,4.27,0,0,0,69.76,247a4,4,0,0,1-1.94,1.27,3.64,3.64,0,0,1-1.94,0,4.49,4.49,0,0,1-1.63-.9,2.7,2.7,0,0,1-.92-1.37,11.52,11.52,0,0,1-.46-2.25,21.09,21.09,0,0,1-.08-3.18c.06-1.25.19-2.68.41-4.31s.55-3.51,1-5.61a13.79,13.79,0,0,0,.3-5.13,4.18,4.18,0,0,0-1.58-2.86,4.23,4.23,0,0,0-3.19-.51,12.35,12.35,0,0,0-4.46,2,1.5,1.5,0,0,0-.56,1,16.29,16.29,0,0,0-.23,1.89c0,.73-.08,1.54-.1,2.42s-.06,1.77-.13,2.65a79.64,79.64,0,0,0-.28,8.09,24.85,24.85,0,0,0,.87,6.42,9.87,9.87,0,0,0,2.4,4.36,6.93,6.93,0,0,0,4.36,1.94,10.81,10.81,0,0,0,2.95-.1,13.93,13.93,0,0,0,2.83-.79,14.09,14.09,0,0,0,2.48-1.27,16.16,16.16,0,0,0,1.94-1.51A5,5,0,0,0,73.27,247c.14-.61.06-1-.25-1.3A1.42,1.42,0,0,0,71.64,245.64ZM58.28,220.16a7.3,7.3,0,0,0,2.75.38,7.6,7.6,0,0,0,2.63-.61,5.21,5.21,0,0,0,2-1.48,4.41,4.41,0,0,0,.94-2.19,4.55,4.55,0,0,0-.59-2.73,5,5,0,0,0-1.6-2,3,3,0,0,0-1.74-.51,4.78,4.78,0,0,0-1.78.4c-.6.26-1.15.52-1.66.79q-3.11,1.59-3.93,3.29a2.54,2.54,0,0,0,.51,3.09A6,6,0,0,0,58.28,220.16Zm109.27,35.73a7.54,7.54,0,0,0-2.2-1.82l.24-.22a5.8,5.8,0,0,0,1.55-2.19c.19-.61.15-1-.12-1.3a1.23,1.23,0,0,0-1.28-.1,4.42,4.42,0,0,0-1.84,1.35,4.46,4.46,0,0,1-1.78,1.31,10.89,10.89,0,0,0-2.06-.22H160a5,5,0,0,1-1.9-2.93,12.05,12.05,0,0,1-.53-3.11c-.09-1.29-.12-2.66-.11-4.1s.11-2.91.26-4.39.33-2.8.53-3.95a9.31,9.31,0,0,0-.2-5.05,4.74,4.74,0,0,0-2.42-2.7,6.87,6.87,0,0,0-4-.39,13.51,13.51,0,0,0-4.89,2,11.56,11.56,0,0,0-2,1.68,20.93,20.93,0,0,0-2.16,2.65c.4-2.75.91-5.53,1.5-8.34s1.28-5.53,2.07-8.18a15.44,15.44,0,0,0,.79-5.15,4.61,4.61,0,0,0-1.25-3.17,4.38,4.38,0,0,0-3.29-1,15.85,15.85,0,0,0-5.33,1.4c-.21.11-.42.61-.64,1.53s-.45,2.1-.69,3.55-.46,3.07-.66,4.87-.39,3.64-.56,5.51-.32,3.67-.43,5.4-.22,3.27-.29,4.59q-.15,3.78-.15,7.52t.21,6.81c.13,2,.31,3.75.53,5.13a4.2,4.2,0,0,0,.89,2.47,6,6,0,0,0,2.73,1.2,5.81,5.81,0,0,0,2.42-.13,3.93,3.93,0,0,0,1.69-.89c.41-.39.56-.76.46-1.1a25.24,25.24,0,0,1-.92-5.94,68.22,68.22,0,0,1,.05-7.93,18.22,18.22,0,0,1,.74-2.11,15.6,15.6,0,0,1,.94-1.92,17.4,17.4,0,0,1,1-1.48,4.8,4.8,0,0,1,.87-.91,1.57,1.57,0,0,1,1.15-.46c.35,0,.66.35.91,1a11.43,11.43,0,0,1,.62,2.85,47.13,47.13,0,0,1,.23,5.2c0,4.36.69,7.63,2.09,9.82a8.43,8.43,0,0,0,4,3.39.47.47,0,0,0,0,.1,2.56,2.56,0,0,0-.2,1.35,3,3,0,0,0,.66,1.51,2.68,2.68,0,0,0,1.2.81,2.23,2.23,0,0,0,1.35,0,2,2,0,0,0,1.12-.79,1.8,1.8,0,0,0-.07-.94,5.73,5.73,0,0,1-.17-1.27,9,9,0,0,0,3.58-.46c.26-.09.52-.19.77-.3a5.69,5.69,0,0,1,.33,2.11,6,6,0,0,1-1,3.34,9.59,9.59,0,0,1-2.37,2.57,3,3,0,0,0-1.37,1.86,2.54,2.54,0,0,0,.28,1.87,2.4,2.4,0,0,0,1.55,1.09,3.39,3.39,0,0,0,2.45-.43,2,2,0,0,0,1-.89,1.32,1.32,0,0,0,.1-1,1.34,1.34,0,0,0-.64-.74,1.44,1.44,0,0,0-1.09-.13.94.94,0,0,0-.46.31,3.1,3.1,0,0,0-.26.41.61.61,0,0,1-.17.25c-.06,0-.12,0-.18-.2s.08-.44.46-.71a13.43,13.43,0,0,1,1.45-.92c.59-.34,1.26-.72,2-1.12a13.87,13.87,0,0,0,2-1.36,7,7,0,0,0,1.51-1.63,3.07,3.07,0,0,0,.53-1.91A4.68,4.68,0,0,0,167.55,255.89Zm-5,42.79a4.61,4.61,0,0,0-1,1.25,11.67,11.67,0,0,1-2,2.55,14.07,14.07,0,0,1-5.66,3.31,9.65,9.65,0,0,1-2.93.44,6.12,6.12,0,0,1-2.55-.59,4.06,4.06,0,0,1-1.81-1.79l.2-.1a19.65,19.65,0,0,0,5.82-3.49,19.31,19.31,0,0,0,4-4.79,12.94,12.94,0,0,0,1.79-5.13,6.78,6.78,0,0,0-1-4.54,6.26,6.26,0,0,0-3.08-2.5,9.52,9.52,0,0,0-4.11-.53,14.15,14.15,0,0,0-4.49,1.19,18,18,0,0,0-7.65,6.51,12.44,12.44,0,0,0-1.88,4.71,20.12,20.12,0,0,0-.18,6.43,12.84,12.84,0,0,0,1.76,5,10.2,10.2,0,0,0,3.42,3.4,11.65,11.65,0,0,0,4.79,1.58,12.6,12.6,0,0,0,5-.56,23.38,23.38,0,0,0,5.2-2.32,22.38,22.38,0,0,0,4.41-3.45,10.43,10.43,0,0,0,2.58-3.92,7.7,7.7,0,0,0,.38-1.84,1.11,1.11,0,0,0-.26-.94C163.16,298.42,162.91,298.46,162.6,298.68Zm-17,2.11a14.32,14.32,0,0,1,0-3.82,37.52,37.52,0,0,1,1.12-5.92,17.06,17.06,0,0,1,1.53-3.8,3.36,3.36,0,0,1,1.64-1.6,1.13,1.13,0,0,1,1.37.66,4.73,4.73,0,0,1,.51,2.7,14.18,14.18,0,0,1-.74,4,18.4,18.4,0,0,1-2,4.26A12.43,12.43,0,0,1,145.62,300.79Zm-7.27-18.48a5,5,0,0,0,2.48-1.41q1.06-1,2.22-2.19c.76-.78,1.53-1.57,2.29-2.37s1.51-1.59,2.22-2.37,1.36-1.51,1.94-2.19c.78.81,1.61,1.65,2.5,2.52s1.76,1.71,2.62,2.53,1.72,1.58,2.55,2.32,1.58,1.36,2.22,1.88,1.18.94,1.61,1.23.69.4.79.33c.47-.24.65-.84.53-1.81a11.43,11.43,0,0,0-1.09-3.39,28.76,28.76,0,0,0-2.5-4.19,29.58,29.58,0,0,0-3.67-4.23,6.73,6.73,0,0,0-2.32-1.53,7,7,0,0,0-2.32-.41,11.54,11.54,0,0,0-4.54,1,24.78,24.78,0,0,0-6,3.59q-2,1.63-3.29,2.73c-.83.73-1.48,1.34-1.94,1.81a7.45,7.45,0,0,0-.92,1.1c-.15.25-.21.43-.18.53a8.16,8.16,0,0,0,1.08,2.53,4.83,4.83,0,0,0,1.65,1.63A3.12,3.12,0,0,0,138.35,282.31ZM143,157.59c-.18.07-.34.39-.49.95a19.11,19.11,0,0,0-.43,2.22c-.14.91-.26,2-.36,3.16s-.2,2.45-.31,3.77l-3.06-.1a7.65,7.65,0,0,0-1.32,0,3.41,3.41,0,0,0-.49.87,2,2,0,0,0-.12.94,2.35,2.35,0,0,0,.4,1,4,4,0,0,0,1.13,1.05,6.72,6.72,0,0,0,1.4.74,15.16,15.16,0,0,0,1.86.58c-.1,2-.15,4-.15,5.71q-.06,4.44,0,8.5a38.05,38.05,0,0,0,.69,7.19,13.11,13.11,0,0,0,2.06,5.12,5.66,5.66,0,0,0,4.18,2.3,9.66,9.66,0,0,0,3.17-.13,13.3,13.3,0,0,0,3.13-1.1,19.23,19.23,0,0,0,3-1.88,34.73,34.73,0,0,0,2.9-2.5,5.25,5.25,0,0,0,1.51-2.2,1.22,1.22,0,0,0-.23-1.3,1.45,1.45,0,0,0-1.38-.1,4.52,4.52,0,0,0-1.89,1.35,8,8,0,0,1-2.32,1.79,7.29,7.29,0,0,1-2.55.79,4.67,4.67,0,0,1-2.24-.28,2.15,2.15,0,0,1-1.3-1.48,20.67,20.67,0,0,1-.79-3.9,41.92,41.92,0,0,1-.28-5.08q0-2.75.23-5.79a55.78,55.78,0,0,1,.79-6.09,48.18,48.18,0,0,0,5.35-.28,18.28,18.28,0,0,0,4.08-.84,3.07,3.07,0,0,0,2.35-2.91c0-1.39-.73-3.19-2.3-5.41-.1-.13-.33-.13-.68,0l-1.53.62c-.67.27-1.47.58-2.4.92s-2,.66-3.24,1a2.71,2.71,0,0,0,.15-.46,2.23,2.23,0,0,1,.16-.4,15.8,15.8,0,0,0,1-5.13,4.55,4.55,0,0,0-1.12-3.24,4.36,4.36,0,0,0-3.24-1.12A16.27,16.27,0,0,0,143,157.59Zm-1.1-70.23A14.48,14.48,0,0,0,147.37,84a8.45,8.45,0,0,0,2.2-3.09c.26-.87.2-1.48-.19-1.84a1.73,1.73,0,0,0-1.8-.14A6.41,6.41,0,0,0,145,80.8q-2.3,2.6-4.64,2c-1.56-.43-2.75-2-3.57-4.54a17.28,17.28,0,0,1-.75-4.39q-.18-2.73-.15-5.8c0-2,.15-4.1.36-6.19s.47-3.94.76-5.58a13.22,13.22,0,0,0-.29-7.13,6.67,6.67,0,0,0-3.42-3.81,9.61,9.61,0,0,0-5.65-.54,19,19,0,0,0-6.91,2.77A16.64,16.64,0,0,0,118,49.92a28.8,28.8,0,0,0-3.06,3.74q.85-5.83,2.12-11.77t2.92-11.56a21.6,21.6,0,0,0,1.11-7.27,6.46,6.46,0,0,0-1.76-4.46,6.16,6.16,0,0,0-4.64-1.41,22.45,22.45,0,0,0-7.53,2q-.44.22-.9,2.16c-.31,1.3-.64,3-1,5s-.65,4.33-.94,6.87-.55,5.14-.79,7.78-.44,5.18-.61,7.63-.3,4.61-.4,6.48q-.21,5.32-.21,10.62t.28,9.61q.3,4.32.76,7.24c.31,1.94.73,3.11,1.26,3.49a8.26,8.26,0,0,0,7.27,1.51,5.55,5.55,0,0,0,2.38-1.26c.58-.55.79-1.07.65-1.55a35.83,35.83,0,0,1-1.3-8.38,98.1,98.1,0,0,1,.07-11.2,28,28,0,0,1,1-3,21.21,21.21,0,0,1,1.33-2.7,24.61,24.61,0,0,1,1.37-2.09,6.7,6.7,0,0,1,1.22-1.29,2.26,2.26,0,0,1,1.62-.65c.51,0,.94.5,1.3,1.37a16.39,16.39,0,0,1,.86,4,64.73,64.73,0,0,1,.32,7.34q0,9.22,3,13.86a12.35,12.35,0,0,0,8.78,5.66A14.26,14.26,0,0,0,141.9,87.36ZM123.52,209.29a4.1,4.1,0,0,0-1.89,1.33,5.29,5.29,0,0,1-2,1.48,3.53,3.53,0,0,1-1.88.17,3.42,3.42,0,0,1-1.61-.81A4.51,4.51,0,0,1,115,209.9a8.54,8.54,0,0,1-.74-3,31.32,31.32,0,0,1-.1-4c0-1.45.16-2.89.33-4.34s.36-2.74.56-3.9a14.83,14.83,0,0,0,.18-5.15,4.44,4.44,0,0,0-1.58-2.91,4,4,0,0,0-3.14-.51,12.7,12.7,0,0,0-4.44,2,2.74,2.74,0,0,0-.51,1.28,7.82,7.82,0,0,0-4.28-.59,11.25,11.25,0,0,0-4.67,1.71,14.28,14.28,0,0,0-4,4,15.47,15.47,0,0,0-2.45,6.17,22.6,22.6,0,0,0-.3,6.37A14.66,14.66,0,0,0,91.18,212,9.57,9.57,0,0,0,94,215.44,8.29,8.29,0,0,0,98.07,217a8,8,0,0,0,4.08-.51,10.51,10.51,0,0,0,3.26-2.24,8.87,8.87,0,0,0,1.33-2,8.62,8.62,0,0,0,6.52,4.59,8.35,8.35,0,0,0,3,0,12.49,12.49,0,0,0,2.88-.89,14.41,14.41,0,0,0,2.55-1.45,15.76,15.76,0,0,0,1.94-1.61,5.25,5.25,0,0,0,1.5-2.19c.15-.61.08-1-.23-1.28A1.51,1.51,0,0,0,123.52,209.29Zm-18.44-15c0,1-.09,2-.1,3.09s0,2.07,0,3.06v2.65q0,.62,0,1.17c0,.38,0,.75.07,1.12s-.09.87-.17,1.48-.21,1.25-.36,1.91a11.94,11.94,0,0,1-.61,1.92,4,4,0,0,1-1,1.43,1.48,1.48,0,0,1-1.68.35,3.67,3.67,0,0,1-1.76-1.66,10.41,10.41,0,0,1-1.22-3.44,16.29,16.29,0,0,1-.13-5,23.24,23.24,0,0,1,1-4.69,15.6,15.6,0,0,1,1.68-3.64,6.84,6.84,0,0,1,2.09-2.2,2.71,2.71,0,0,1,2.3-.33C105.19,192.34,105.13,193.27,105.08,194.27ZM90.72,135.7a37.86,37.86,0,0,0-.48,5c-.09,2-.06,4.2.07,6.58a43.78,43.78,0,0,0,.92,6.79,9.88,9.88,0,0,0,3,5.5,9.37,9.37,0,0,0,5.2,2.35,8.58,8.58,0,0,0,4-.48,18,18,0,0,0,4.33-2.25,25.12,25.12,0,0,0,4.16-3.67,23.48,23.48,0,0,0,3.41-4.87,13.06,13.06,0,0,0,2.73-1.12,16.23,16.23,0,0,0,2.27-1.48,8.84,8.84,0,0,0,1.51-1.46c.35-.45.48-.8.38-1a.61.61,0,0,0-.74-.46,3.86,3.86,0,0,0-1.3.59c-.51.32-1.08.69-1.71,1.12s-1.27.81-1.91,1.15a21.93,21.93,0,0,0,1.22-5.54,17.87,17.87,0,0,0-.51-5.94,6.71,6.71,0,0,0-1.4-2.8,6,6,0,0,0-2.27-1.61,8.54,8.54,0,0,0-2.93-.59,14.39,14.39,0,0,0-3.34.31,4.11,4.11,0,0,0-2.45,1.58,9.66,9.66,0,0,0-1.66,3.21,15.15,15.15,0,0,0-.64,4.08,13.94,13.94,0,0,0,.54,4.21A10.09,10.09,0,0,0,105,148.5a7.42,7.42,0,0,0,3.47,2.32,25.47,25.47,0,0,1-2.19,4.34,10.77,10.77,0,0,1-2.4,2.75c-.85.61-1.63.37-2.35-.74a11.9,11.9,0,0,1-1.47-4.87,37.29,37.29,0,0,1-.29-5.76,23.94,23.94,0,0,1,.69-5.31,14,14,0,0,0,.49-4.64,5,5,0,0,0-1.28-3.16,4.4,4.4,0,0,0-3.13-1.2,12,12,0,0,0-5.05,1.25C91.22,133.62,91,134.36,90.72,135.7Zm15.48,9.56a11.23,11.23,0,0,1-1.2-4.36,11.51,11.51,0,0,1,.46-4.23,4.7,4.7,0,0,1,1.84-2.73c.71-.44,1.37,0,2,1.33s.89,3.81.89,7.44a19.26,19.26,0,0,1-.2,2.81,20.54,20.54,0,0,1-.61,2.8A6.4,6.4,0,0,1,106.2,145.26Zm10.71,117.47a4.47,4.47,0,0,0-1.89,1.36,8.12,8.12,0,0,1-2.32,1.78,7.08,7.08,0,0,1-2.55.79,4.55,4.55,0,0,1-2.24-.28,2.13,2.13,0,0,1-1.3-1.48,21.32,21.32,0,0,1-.79-3.9,41.87,41.87,0,0,1-.28-5.07q0-2.76.23-5.79a56,56,0,0,1,.79-6.1,48.18,48.18,0,0,0,5.35-.28,17.21,17.21,0,0,0,4.08-.84,3,3,0,0,0,2.35-2.91c0-1.39-.73-3.19-2.3-5.4-.1-.14-.33-.14-.68,0s-.87.34-1.53.61-1.47.58-2.4.92-2,.66-3.24,1a3,3,0,0,0,.15-.46,2.31,2.31,0,0,1,.16-.41,15.76,15.76,0,0,0,1-5.13,4.51,4.51,0,0,0-1.12-3.23,3,3,0,0,0-.81-.6,5.41,5.41,0,0,0,1-.85,3.7,3.7,0,0,0,.84-1.69,3.21,3.21,0,0,0-.31-2,4.58,4.58,0,0,0-1.25-1.65,2.71,2.71,0,0,0-1.37-.62,3.42,3.42,0,0,0-1.38.13,8.78,8.78,0,0,0-1.3.51,6,6,0,0,0-2,1.43,3.26,3.26,0,0,0-.76,1.58,2.86,2.86,0,0,0,.2,1.58,4.12,4.12,0,0,0,.92,1.33l.17.15a20.86,20.86,0,0,0-2.56.79c-.18.07-.34.38-.49.94a19.11,19.11,0,0,0-.43,2.22c-.14.92-.26,2-.36,3.16s-.2,2.45-.31,3.77c-1.19,0-2.21-.06-3-.1a7.74,7.74,0,0,0-1.33,0,3.58,3.58,0,0,0-.49.87,2,2,0,0,0-.12.94,2.26,2.26,0,0,0,.4,1,4,4,0,0,0,1.13,1.05,6.28,6.28,0,0,0,1.4.74,15.16,15.16,0,0,0,1.86.58c-.1,2-.15,3.95-.15,5.72,0,2.95,0,5.79,0,8.49a38.05,38.05,0,0,0,.69,7.19,13.11,13.11,0,0,0,2.06,5.12,5.62,5.62,0,0,0,4.18,2.3,9.4,9.4,0,0,0,3.17-.13,13.26,13.26,0,0,0,3.13-1.09,18.59,18.59,0,0,0,3-1.89,33,33,0,0,0,2.9-2.5,5.3,5.3,0,0,0,1.51-2.19c.15-.62.08-1.05-.23-1.3A1.44,1.44,0,0,0,116.91,262.73ZM92.18,185.19a3.11,3.11,0,0,0,2.09.36,5,5,0,0,0,2.47-1.4c.71-.68,1.45-1.41,2.22-2.2s1.53-1.57,2.29-2.37,1.51-1.59,2.22-2.37,1.36-1.51,1.94-2.19c.78.81,1.61,1.66,2.5,2.52s1.76,1.71,2.63,2.53,1.71,1.59,2.55,2.32,1.57,1.36,2.22,1.88a17.29,17.29,0,0,0,1.6,1.2c.43.28.69.39.79.36.48-.24.66-.84.54-1.81a11.49,11.49,0,0,0-1.1-3.39,30.07,30.07,0,0,0-6.17-8.42,6.34,6.34,0,0,0-4.64-1.94,11.54,11.54,0,0,0-4.54,1,24.53,24.53,0,0,0-6,3.6c-1.36,1.08-2.46,2-3.29,2.72s-1.48,1.34-1.94,1.81a7.75,7.75,0,0,0-.91,1.1c-.16.26-.22.43-.18.54a8,8,0,0,0,1.07,2.52A4.77,4.77,0,0,0,92.18,185.19ZM96.43,18.45a2.34,2.34,0,0,0-.54-2.3c-.53-.43-1.34-.43-2.45,0a10.35,10.35,0,0,0-3.74,3.17,52.2,52.2,0,0,0-4.65,6.73q-2.26,3.86-4.35,8.35t-4,9.5q-1.9,5-3.49,10.19Q70,64.17,67.67,70.4t-3.46,9.47c-.72-3.07-1.47-6.29-2.23-9.65-.67-2.88-1.42-6.07-2.23-9.58s-1.61-7-2.38-10.58Q56,43.86,54.81,38.25a88.58,88.58,0,0,0-2.7-10.08,32.07,32.07,0,0,0-3.52-7.49,10.11,10.11,0,0,0-5.12-4.1,12.33,12.33,0,0,0-3.16-.65,17.7,17.7,0,0,0-3.5.07,9.45,9.45,0,0,0-3,.87,2.54,2.54,0,0,0-1.52,1.73,1.77,1.77,0,0,0,.11,1.15c.17.38.45,1,.83,1.8s.86,2,1.44,3.45,1.25,3.51,2,6.05,1.62,5.74,2.55,9.58,2,8.52,3.06,14A146.7,146.7,0,0,0,45.74,69a50.65,50.65,0,0,0,3.85,9.58,20.09,20.09,0,0,0,4.58,5.83,16.7,16.7,0,0,0,5.58,3.06,11,11,0,0,0,3.13.57,18.17,18.17,0,0,0,2.91-.07A8.5,8.5,0,0,0,68,87.46c.58-.21.92-.44,1-.68.39-1,.84-2.22,1.37-3.64s1.22-3.32,2.09-5.72,1.91-5.45,3.13-9.14S78.3,60,80.12,54.38q3.47-10.73,7.06-19a61.67,61.67,0,0,1,7.27-13.07A8.59,8.59,0,0,0,96.43,18.45Zm-17.6,168.1A4.46,4.46,0,0,0,77,187.91c-1.09,1.22-2.19,1.68-3.29,1.37s-1.95-1.37-2.53-3.21a12.05,12.05,0,0,1-.53-3.11c-.09-1.29-.12-2.66-.1-4.11s.1-2.9.25-4.38.33-2.8.54-4a9.41,9.41,0,0,0-.21-5,4.74,4.74,0,0,0-2.42-2.7,6.77,6.77,0,0,0-4-.38,13.45,13.45,0,0,0-4.9,2,12.15,12.15,0,0,0-2,1.69,20.27,20.27,0,0,0-2.17,2.65q.62-4.14,1.5-8.34c.6-2.81,1.29-5.53,2.07-8.19A15.41,15.41,0,0,0,60,147a4.59,4.59,0,0,0-1.25-3.16,4.33,4.33,0,0,0-3.29-1,8.16,8.16,0,0,0-1,.11q-.41-2.73-.56-5.67a79,79,0,0,1,.29-11.42q.09-.21.15-.39c0-.12.07-.26.1-.43a32.51,32.51,0,0,1,1.79-6.45,32.12,32.12,0,0,1,2.34-4.8,22.18,22.18,0,0,1,2.35-3.26,19.29,19.29,0,0,1,1.78-1.81c1.06-.85,1.74-.38,2.07,1.4a31.82,31.82,0,0,1-.18,8.39,24.29,24.29,0,0,1-1.07,4.85,17.72,17.72,0,0,1-1.79,3.9,6.55,6.55,0,0,1-2.24,2.29,2.24,2.24,0,0,1-2.4,0,2.79,2.79,0,0,0-1.32-.49.67.67,0,0,0-.62.36,1.19,1.19,0,0,0,0,.82,2.1,2.1,0,0,0,.43.84,5.58,5.58,0,0,0,2.71,1.68,8.19,8.19,0,0,0,3.51.18,12.91,12.91,0,0,0,3.85-1.25,14.79,14.79,0,0,0,3.65-2.58,16.19,16.19,0,0,0,2.93-3.82,15.86,15.86,0,0,0,1.76-5,33.07,33.07,0,0,0,.56-6.4,15.29,15.29,0,0,0-.84-5.08,8.14,8.14,0,0,0-2.29-3.44,6.8,6.8,0,0,0-3.8-1.56,7.77,7.77,0,0,0-4.08.54,10.83,10.83,0,0,0-3.27,2.27l-1.53,1.68a24.21,24.21,0,0,0-1.63,2.09c.07-.24.15-.47.23-.71s.16-.48.23-.72a10.13,10.13,0,0,0,.41-4.76,4.7,4.7,0,0,0-1.63-2.86,5.2,5.2,0,0,0-3-1,8.4,8.4,0,0,0-3.69.74c-.21.07-.41.58-.62,1.55s-.4,2.21-.58,3.73-.38,3.2-.56,5.07-.34,3.73-.46,5.59-.22,3.62-.31,5.3-.13,3.09-.13,4.21c0,2.41,0,4.88.1,7.39s.17,4.82.29,6.91.27,3.84.45,5.23.4,2.18.64,2.35a5.35,5.35,0,0,0,.54.34c0,.19-.07.38-.1.57-.24,1.45-.46,3.07-.67,4.87s-.39,3.64-.56,5.51-.31,3.67-.43,5.41-.21,3.26-.28,4.59c-.1,2.51-.16,5-.16,7.52S46.82,182,47,184s.31,3.75.53,5.12.52,2.21.9,2.48a5.86,5.86,0,0,0,2.73,1.2,6,6,0,0,0,2.42-.13,4.06,4.06,0,0,0,1.68-.89c.41-.39.56-.76.46-1.1a25.86,25.86,0,0,1-.92-5.94,70.51,70.51,0,0,1,.05-7.93,20.48,20.48,0,0,1,.74-2.12,16.18,16.18,0,0,1,1-1.91,15.35,15.35,0,0,1,1-1.48,4.9,4.9,0,0,1,.87-.92,1.62,1.62,0,0,1,1.15-.46c.36,0,.66.36.92,1a11.62,11.62,0,0,1,.61,2.86,47,47,0,0,1,.23,5.2c0,4.35.69,7.62,2.09,9.82a8.76,8.76,0,0,0,6.22,4,10,10,0,0,0,5.25-.25,10.36,10.36,0,0,0,3.88-2.4A6,6,0,0,0,80.24,188c.18-.62.14-1.05-.13-1.3A1.25,1.25,0,0,0,78.83,186.55Zm-7.19,59.09A4.27,4.27,0,0,0,69.76,247a4,4,0,0,1-1.94,1.27,3.64,3.64,0,0,1-1.94,0,4.49,4.49,0,0,1-1.63-.9,2.7,2.7,0,0,1-.92-1.37,11.52,11.52,0,0,1-.46-2.25,21.09,21.09,0,0,1-.08-3.18c.06-1.25.19-2.68.41-4.31s.55-3.51,1-5.61a13.79,13.79,0,0,0,.3-5.13,4.18,4.18,0,0,0-1.58-2.86,4.23,4.23,0,0,0-3.19-.51,12.35,12.35,0,0,0-4.46,2,1.5,1.5,0,0,0-.56,1,16.29,16.29,0,0,0-.23,1.89c0,.73-.08,1.54-.1,2.42s-.06,1.77-.13,2.65a79.64,79.64,0,0,0-.28,8.09,24.85,24.85,0,0,0,.87,6.42,9.87,9.87,0,0,0,2.4,4.36,6.93,6.93,0,0,0,4.36,1.94,10.81,10.81,0,0,0,2.95-.1,13.93,13.93,0,0,0,2.83-.79,14.09,14.09,0,0,0,2.48-1.27,16.16,16.16,0,0,0,1.94-1.51A5,5,0,0,0,73.27,247c.14-.61.06-1-.25-1.3A1.42,1.42,0,0,0,71.64,245.64ZM58.28,220.16a7.3,7.3,0,0,0,2.75.38,7.6,7.6,0,0,0,2.63-.61,5.21,5.21,0,0,0,2-1.48,4.41,4.41,0,0,0,.94-2.19,4.55,4.55,0,0,0-.59-2.73,5,5,0,0,0-1.6-2,3,3,0,0,0-1.74-.51,4.78,4.78,0,0,0-1.78.4c-.6.26-1.15.52-1.66.79q-3.11,1.59-3.93,3.29a2.54,2.54,0,0,0,.51,3.09A6,6,0,0,0,58.28,220.16ZM0,0V333.88H201.62V0ZM7,7h8.61V281.64H7ZM46,326.88H7V288.64H32.27v6.69H17V317.6H39.27V302.33H46ZM32.27,302.33v8.27H24v-8.27Zm146.66,24.55H53V295.33H39.27V281.64H22.61V7H146.93V37.43h13.69V51.12h18.31Zm15.69,0h-8.69V51.12h8.69Zm0-282.76h-27V37.43h15.27V15.16H160.62V30.43h-6.69V7h40.69Zm-27-13.69V22.16h8.27v8.27Z"/></g></g></svg>