<svg xmlns="http://www.w3.org/2000/svg" viewBox="0 0 201.62 333.88"><defs><style>.cls-1{fill:#5f2414;}</style></defs><title>vat-the</title><g id="Layer_2" data-name="Layer 2"><g id="vat-the"><g id="vat-the-2" data-name="vat-the"><path class="cls-1" d="M0,0V333.88H201.62V0ZM7,7h8.61V281.64H7ZM7,288.64H32.27v6.69H17V317.6H39.27V302.33H46v24.55H7Zm25.27,13.69v8.27H24v-8.27Zm146.66,24.55H53V295.33H39.27V281.64H22.61V7H146.93V37.43h13.69V51.12h18.31Zm15.69,0h-8.69V51.12h8.69Zm0-282.76h-27V37.43h15.27V15.16H160.62V30.43h-6.69V7h40.69Zm-27-13.69V22.16h8.27v8.27Z"/><path class="cls-1" d="M91.05,129.11A20.15,20.15,0,0,0,93,128l1.71-1.12a4,4,0,0,1,1.3-.58.6.6,0,0,1,.74.46c.1.24,0,.58-.38,1a8.84,8.84,0,0,1-1.51,1.46,15.37,15.37,0,0,1-2.27,1.47,13,13,0,0,1-2.73,1.12,22.89,22.89,0,0,1-3.42,4.87,25.12,25.12,0,0,1-4.16,3.67,17.61,17.61,0,0,1-4.34,2.24,8.53,8.53,0,0,1-4,.48,9.34,9.34,0,0,1-5.2-2.35,9.87,9.87,0,0,1-3-5.51,42.45,42.45,0,0,1-.92-6.79q-.19-3.57-.07-6.58a39.61,39.61,0,0,1,.49-5c.24-1.34.5-2.08.77-2.22a12,12,0,0,1,5-1.24,4.45,4.45,0,0,1,3.14,1.2,5,5,0,0,1,1.27,3.16,14.31,14.31,0,0,1-.49,4.64,22.81,22.81,0,0,0-.69,5.31,36.13,36.13,0,0,0,.27,5.76,11.73,11.73,0,0,0,1.48,4.87c.71,1.11,1.49,1.36,2.34.74a10.43,10.43,0,0,0,2.4-2.75A24.31,24.31,0,0,0,83,132a7.44,7.44,0,0,1-3.47-2.32A10.13,10.13,0,0,1,77.61,126a13.63,13.63,0,0,1-.53-4.21,14.64,14.64,0,0,1,.64-4.07,9.71,9.71,0,0,1,1.66-3.22,4.19,4.19,0,0,1,2.45-1.58,15,15,0,0,1,3.34-.3,8.54,8.54,0,0,1,2.93.59,6,6,0,0,1,2.27,1.61,6.69,6.69,0,0,1,1.4,2.81,17.87,17.87,0,0,1,.51,5.94A22.3,22.3,0,0,1,91.05,129.11Zm-9.22-14A4.7,4.7,0,0,0,80,117.8a11.8,11.8,0,0,0,.73,8.6,6.48,6.48,0,0,0,3.14,3.06,20.54,20.54,0,0,0,.61-2.8,19.29,19.29,0,0,0,.21-2.81c0-3.64-.29-6.12-.89-7.44S82.54,114.64,81.83,115.08Z"/><path class="cls-1" d="M85.47,153.35a29.76,29.76,0,0,1,6.16,8.42,11.57,11.57,0,0,1,1.09,3.4c.12,1-.06,1.57-.53,1.81-.11,0-.37-.09-.79-.36a17.2,17.2,0,0,1-1.61-1.2c-.65-.53-1.38-1.16-2.22-1.89S85.89,162,85,161.21s-1.75-1.66-2.63-2.53-1.71-1.71-2.5-2.53c-.57.68-1.22,1.41-1.93,2.19s-1.46,1.58-2.23,2.37-1.53,1.59-2.29,2.37-1.51,1.51-2.22,2.19a4.87,4.87,0,0,1-2.48,1.4,3.18,3.18,0,0,1-2.09-.35A4.87,4.87,0,0,1,65,164.68a8,8,0,0,1-1.07-2.52c0-.11,0-.28.18-.54a7.27,7.27,0,0,1,.91-1.09c.46-.48,1.11-1.08,1.94-1.81s1.93-1.64,3.3-2.73a24.78,24.78,0,0,1,6-3.59,11.32,11.32,0,0,1,4.54-1,7,7,0,0,1,2.32.41A6.64,6.64,0,0,1,85.47,153.35Zm10.62,38.42A4.2,4.2,0,0,1,98,190.44a1.57,1.57,0,0,1,1.38.1c.3.24.38.67.23,1.28A5.4,5.4,0,0,1,98.08,194a16.71,16.71,0,0,1-1.94,1.61,14.41,14.41,0,0,1-2.55,1.45,13.55,13.55,0,0,1-2.88.89,9.07,9.07,0,0,1-9.51-4.58,8.44,8.44,0,0,1-1.33,2,10.38,10.38,0,0,1-3.27,2.24,8,8,0,0,1-4.08.51,8.17,8.17,0,0,1-4-1.56,9.62,9.62,0,0,1-2.83-3.44,14.72,14.72,0,0,1-1.37-5.06,23,23,0,0,1,.31-6.37A15.48,15.48,0,0,1,67,175.52a14.24,14.24,0,0,1,4-4,11.25,11.25,0,0,1,4.67-1.71,8,8,0,0,1,4.29.59,2.69,2.69,0,0,1,.51-1.27,12.54,12.54,0,0,1,4.44-2,4,4,0,0,1,3.13.52,4.37,4.37,0,0,1,1.58,2.9,14.88,14.88,0,0,1-.18,5.16q-.32,1.73-.57,3.9c-.17,1.44-.28,2.89-.33,4.33a29.78,29.78,0,0,0,.1,4.06,8.61,8.61,0,0,0,.73,3,4.51,4.51,0,0,0,1.12,1.55,3.35,3.35,0,0,0,1.61.82,3.48,3.48,0,0,0,1.89-.18A5.2,5.2,0,0,0,96.09,191.77Zm-18.67,1.46a4,4,0,0,0,1-1.43,12.15,12.15,0,0,0,.61-1.91,18.16,18.16,0,0,0,.36-1.91c.09-.62.15-1.11.18-1.48s-.06-.75-.08-1.12,0-.77,0-1.18v-2.65q0-1.49,0-3.06c0-1.05,0-2.08.11-3.09s.11-1.92.18-2.77a2.74,2.74,0,0,0-2.3.32,6.84,6.84,0,0,0-2.09,2.2,16,16,0,0,0-1.69,3.64,23.94,23.94,0,0,0-1,4.69,16.32,16.32,0,0,0,.12,5A10.88,10.88,0,0,0,74,191.92a3.67,3.67,0,0,0,1.76,1.66A1.48,1.48,0,0,0,77.42,193.23Zm2.13,16.06A3.33,3.33,0,0,1,78,209a4.59,4.59,0,0,1-1.35-.89,4.12,4.12,0,0,1-.92-1.33,2.86,2.86,0,0,1-.2-1.58,3.28,3.28,0,0,1,.77-1.58,6,6,0,0,1,2-1.43,7.78,7.78,0,0,1,1.3-.5,3.42,3.42,0,0,1,1.38-.13,2.81,2.81,0,0,1,1.38.61,4.7,4.7,0,0,1,1.24,1.66,3.2,3.2,0,0,1,.31,2,3.61,3.61,0,0,1-.84,1.68,5.5,5.5,0,0,1-1.56,1.2A4.48,4.48,0,0,1,79.55,209.29Z"/><path class="cls-1" d="M90.43,224.06a17.21,17.21,0,0,1-4.08.84,48.36,48.36,0,0,1-5.36.28,58.39,58.39,0,0,0-.8,6.09c-.15,2-.23,3.95-.23,5.79a41.92,41.92,0,0,0,.28,5.08A21.75,21.75,0,0,0,81,246a2.18,2.18,0,0,0,1.3,1.48,4.71,4.71,0,0,0,2.25.28,7.21,7.21,0,0,0,2.55-.79,8.08,8.08,0,0,0,2.32-1.78,4.52,4.52,0,0,1,1.89-1.35,1.42,1.42,0,0,1,1.37.1,1.19,1.19,0,0,1,.23,1.3,5.13,5.13,0,0,1-1.5,2.19,34.57,34.57,0,0,1-2.91,2.5,18.59,18.59,0,0,1-3,1.89A13.63,13.63,0,0,1,82.34,253a9.33,9.33,0,0,1-3.16.12A5.65,5.65,0,0,1,75,250.78a13.23,13.23,0,0,1-2.06-5.13,39,39,0,0,1-.68-7.19q0-4.07,0-8.5c0-1.76,0-3.67.15-5.71a15.16,15.16,0,0,1-1.86-.58,6.51,6.51,0,0,1-1.4-.75,4.08,4.08,0,0,1-1.12-1,2.38,2.38,0,0,1-.41-1,2.05,2.05,0,0,1,.13-1,3.53,3.53,0,0,1,.49-.86,5.71,5.71,0,0,1,1.32,0l3.06.1c.11-1.32.21-2.58.31-3.77s.22-2.24.36-3.16a18.82,18.82,0,0,1,.44-2.22c.15-.56.31-.87.48-.94a16.32,16.32,0,0,1,5.36-1.17A4.32,4.32,0,0,1,82.82,209a4.55,4.55,0,0,1,1.12,3.24,16.12,16.12,0,0,1-1,5.13,2.05,2.05,0,0,0-.16.41,3,3,0,0,1-.15.45,32.2,32.2,0,0,0,3.24-1c.93-.34,1.73-.65,2.4-.92l1.53-.61q.53-.19.69,0c1.56,2.21,2.32,4,2.29,5.41A3.05,3.05,0,0,1,90.43,224.06Z"/><path class="cls-1" d="M131.85,167.92a17.79,17.79,0,0,1-4.08.83,48.31,48.31,0,0,1-5.35.28,55.83,55.83,0,0,0-.8,6.09c-.16,2-.23,4-.24,5.79a41.92,41.92,0,0,0,.28,5.08,20.67,20.67,0,0,0,.79,3.9,2.13,2.13,0,0,0,1.3,1.48,4.55,4.55,0,0,0,2.24.28,7.21,7.21,0,0,0,2.55-.79,8,8,0,0,0,2.32-1.78,4.52,4.52,0,0,1,1.89-1.35,1.45,1.45,0,0,1,1.38.1,1.22,1.22,0,0,1,.23,1.3,5.35,5.35,0,0,1-1.51,2.2,31.53,31.53,0,0,1-2.91,2.49,18.94,18.94,0,0,1-3,1.89,13.33,13.33,0,0,1-3.14,1.09,9.39,9.39,0,0,1-3.17.12,5.65,5.65,0,0,1-4.18-2.29,13.38,13.38,0,0,1-2.06-5.13,39,39,0,0,1-.68-7.19q0-4.06,0-8.49c0-1.77,0-3.68.16-5.72a15.16,15.16,0,0,1-1.86-.58,6.19,6.19,0,0,1-1.41-.75,4.07,4.07,0,0,1-1.12-1,2.35,2.35,0,0,1-.4-1,1.93,1.93,0,0,1,.13-1,3.49,3.49,0,0,1,.48-.86,7.79,7.79,0,0,1,1.33,0l3.06.1c.1-1.32.2-2.58.31-3.77s.22-2.24.36-3.16a19.11,19.11,0,0,1,.43-2.22c.15-.56.32-.87.49-.94a16.27,16.27,0,0,1,5.35-1.17,4.36,4.36,0,0,1,3.24,1.12,4.55,4.55,0,0,1,1.12,3.24,16.07,16.07,0,0,1-1,5.13,1.7,1.7,0,0,0-.15.41,4.16,4.16,0,0,1-.16.45,30.71,30.71,0,0,0,3.24-1c.94-.34,1.74-.64,2.4-.92l1.53-.61q.54-.19.69,0c1.56,2.21,2.32,4,2.29,5.41A3.07,3.07,0,0,1,131.85,167.92Z"/><path class="cls-1" d="M136.47,246.94a4.6,4.6,0,0,1,1.84-1.35,1.25,1.25,0,0,1,1.27.1c.27.26.32.69.13,1.31a6,6,0,0,1-1.56,2.19,10.21,10.21,0,0,1-3.88,2.39,9.94,9.94,0,0,1-5.25.25,8.77,8.77,0,0,1-6.22-4c-1.39-2.19-2.08-5.47-2.08-9.82a47.54,47.54,0,0,0-.22-5.2,12.23,12.23,0,0,0-.61-2.86c-.26-.61-.56-.93-.92-1a1.62,1.62,0,0,0-1.15.46,4.61,4.61,0,0,0-.87.92,17.4,17.4,0,0,0-1,1.48,15.44,15.44,0,0,0-.94,1.91,18.9,18.9,0,0,0-.74,2.11,66.36,66.36,0,0,0-.06,7.94,25.46,25.46,0,0,0,.91,5.94c.1.34-.05.7-.46,1.09a4,4,0,0,1-1.68.89,5.82,5.82,0,0,1-5.15-1.07c-.38-.27-.67-1.1-.89-2.48s-.4-3.08-.53-5.12-.2-4.31-.2-6.81.05-5,.16-7.52c.07-1.33.16-2.86.28-4.59s.27-3.54.44-5.41.36-3.7.57-5.51.42-3.42.66-4.87.47-2.62.69-3.54.44-1.43.64-1.53a15.9,15.9,0,0,1,5.34-1.4,4.35,4.35,0,0,1,3.28,1,4.56,4.56,0,0,1,1.25,3.16,15.2,15.2,0,0,1-.8,5.15c-.78,2.66-1.47,5.38-2.07,8.19s-1.1,5.58-1.51,8.34a21.11,21.11,0,0,1,2.17-2.65,12.17,12.17,0,0,1,2-1.69,13.66,13.66,0,0,1,4.89-2,6.87,6.87,0,0,1,4,.39,4.73,4.73,0,0,1,2.42,2.71,9.41,9.41,0,0,1,.2,5.05c-.21,1.15-.39,2.47-.54,3.95s-.24,2.94-.26,4.38,0,2.82.1,4.11a12.05,12.05,0,0,0,.53,3.11c.57,1.84,1.42,2.91,2.52,3.22S135.38,248.16,136.47,246.94Z"/><path class="cls-1" d="M127.61,264.3a29,29,0,0,1,3.67,4.23,28.63,28.63,0,0,1,2.49,4.19,11.49,11.49,0,0,1,1.1,3.39c.11,1-.07,1.57-.54,1.81-.1.07-.37,0-.79-.33s-1-.7-1.61-1.23-1.38-1.16-2.22-1.89-1.68-1.5-2.54-2.32-1.74-1.66-2.63-2.53-1.71-1.71-2.49-2.52c-.58.68-1.23,1.41-1.94,2.19s-1.46,1.57-2.22,2.37l-2.3,2.37q-1.16,1.17-2.22,2.19a5,5,0,0,1-2.48,1.4,3.12,3.12,0,0,1-2.09-.36,4.78,4.78,0,0,1-1.65-1.64,8,8,0,0,1-1.07-2.52q-.06-.15.18-.54a6.89,6.89,0,0,1,.92-1.09c.45-.48,1.1-1.08,1.94-1.81s1.93-1.64,3.29-2.73a24.78,24.78,0,0,1,6-3.59,11.32,11.32,0,0,1,4.54-1,7,7,0,0,1,2.32.41A6.83,6.83,0,0,1,127.61,264.3Zm6.5,31a4.27,4.27,0,0,1,1-1.25c.3-.22.55-.25.74-.1a1.16,1.16,0,0,1,.25.94,7.24,7.24,0,0,1-.38,1.84,10.43,10.43,0,0,1-2.58,3.92,22.63,22.63,0,0,1-4.41,3.44,23,23,0,0,1-5.21,2.32,12.57,12.57,0,0,1-5,.55,11.5,11.5,0,0,1-4.79-1.58,10.26,10.26,0,0,1-3.41-3.4,12.84,12.84,0,0,1-1.76-5,20.12,20.12,0,0,1,.18-6.43,12.41,12.41,0,0,1,1.9-4.71,17.43,17.43,0,0,1,3.39-3.82,17.64,17.64,0,0,1,4.26-2.68,13.82,13.82,0,0,1,4.49-1.19,9.38,9.38,0,0,1,4.11.54,6.21,6.21,0,0,1,3.08,2.5,6.76,6.76,0,0,1,1,4.54,13,13,0,0,1-1.79,5.12,19.18,19.18,0,0,1-4.06,4.79,19.65,19.65,0,0,1-5.82,3.49l-.2.1a4.06,4.06,0,0,0,1.81,1.79,6.05,6.05,0,0,0,2.55.59,9.68,9.68,0,0,0,2.93-.43,14.26,14.26,0,0,0,3-1.3,14.11,14.11,0,0,0,2.68-2A12.29,12.29,0,0,0,134.11,295.26Zm-16-3a14.35,14.35,0,0,0,0,3.82,12.47,12.47,0,0,0,3.4-3.54,18.4,18.4,0,0,0,2-4.26,14.59,14.59,0,0,0,.75-4,4.92,4.92,0,0,0-.51-2.71c-.38-.61-.83-.83-1.38-.66a3.35,3.35,0,0,0-1.63,1.6,16.36,16.36,0,0,0-1.54,3.8A37.08,37.08,0,0,0,118.15,292.29Zm23-38.23a3.09,3.09,0,0,1-.53,1.91,7.45,7.45,0,0,1-1.51,1.63,14.2,14.2,0,0,1-2,1.35l-2,1.12a14.51,14.51,0,0,0-1.45.92c-.38.27-.53.51-.46.71s.13.24.18.2a.63.63,0,0,0,.18-.25,2.25,2.25,0,0,1,.25-.41.91.91,0,0,1,.46-.3,1.43,1.43,0,0,1,1.74.86,1.33,1.33,0,0,1-.11,1,2,2,0,0,1-1,.89,3.39,3.39,0,0,1-2.45.43,2.41,2.41,0,0,1-1.55-1.1,2.55,2.55,0,0,1-.28-1.86A3.06,3.06,0,0,1,132,259.3a9.59,9.59,0,0,0,2.37-2.57,6,6,0,0,0,1-3.34,4.44,4.44,0,0,0-.69-2.76,2.65,2.65,0,0,0-1.3-1,1.67,1.67,0,0,0-.46-.05,2,2,0,0,0-1.81.66,2.72,2.72,0,0,0-.43,1.51,6.65,6.65,0,0,0,.18,1.58,1.8,1.8,0,0,1,.07.94,2.06,2.06,0,0,1-1.12.79,2.31,2.31,0,0,1-1.35,0,2.7,2.7,0,0,1-1.2-.82,3,3,0,0,1-.66-1.5,2.54,2.54,0,0,1,.2-1.35,4.64,4.64,0,0,1,1-1.53,5.56,5.56,0,0,1,1.91-1.25,7.34,7.34,0,0,1,2.88-.51,11.79,11.79,0,0,1,2.5.31,9.81,9.81,0,0,1,2.73,1,8,8,0,0,1,2.26,1.87A4.59,4.59,0,0,1,141.18,254.06Z"/><path class="cls-1" d="M91.46,24.09a10.45,10.45,0,0,1,3.75-3.17c1.11-.43,1.92-.43,2.45,0a2.37,2.37,0,0,1,.54,2.31,8.54,8.54,0,0,1-2,3.81,61.65,61.65,0,0,0-7.28,13.07q-3.62,8.31-7.07,19Q79.12,67.49,77.27,73t-3.14,9.15c-.86,2.4-1.56,4.3-2.09,5.72l-1.37,3.63c-.1.24-.43.47-1,.69a9.22,9.22,0,0,1-2.16.46,18.33,18.33,0,0,1-2.92.07,11.39,11.39,0,0,1-3.13-.58,16.9,16.9,0,0,1-5.58-3.06,20.11,20.11,0,0,1-4.56-5.84,50.65,50.65,0,0,1-3.85-9.58,144.41,144.41,0,0,1-3.4-14.29q-1.65-8.28-3.05-14t-2.55-9.57q-1.14-3.83-2-6.05c-.57-1.49-1.05-2.64-1.44-3.46s-.66-1.42-.82-1.8a1.71,1.71,0,0,1-.11-1.15,2.54,2.54,0,0,1,1.51-1.73,9.33,9.33,0,0,1,3-.86,17,17,0,0,1,3.5-.07,11.92,11.92,0,0,1,3.16.65,10,10,0,0,1,5.11,4.11,31.88,31.88,0,0,1,3.52,7.49A88.68,88.68,0,0,1,56.56,43q1.19,5.63,2.55,11.81c.76,3.56,1.55,7.08,2.37,10.59S63,72.09,63.7,75q1.14,5,2.22,9.65,1.08-3.24,3.47-9.47t5.55-16.3q1.59-5.19,3.51-10.19t4-9.5c1.39-3,2.85-5.78,4.36-8.34A53.22,53.22,0,0,1,91.46,24.09Z"/><path class="cls-1" d="M146.7,85.63a6.37,6.37,0,0,1,2.6-1.91,1.73,1.73,0,0,1,1.8.15q.57.54.18,1.83a8.46,8.46,0,0,1-2.2,3.1,14.48,14.48,0,0,1-5.48,3.37,14,14,0,0,1-7.41.36,12.41,12.41,0,0,1-8.78-5.66q-3-4.65-2.94-13.86a67.26,67.26,0,0,0-.32-7.35,15.93,15.93,0,0,0-.86-4c-.36-.87-.79-1.32-1.3-1.37a2.26,2.26,0,0,0-1.62.65,6.41,6.41,0,0,0-1.22,1.29,23.1,23.1,0,0,0-1.37,2.09,21.22,21.22,0,0,0-1.34,2.7,29.22,29.22,0,0,0-1,3,96,96,0,0,0-.08,11.2,36.13,36.13,0,0,0,1.28,8.39c.15.48-.07,1-.64,1.55a5.54,5.54,0,0,1-2.38,1.25,8.23,8.23,0,0,1-7.27-1.52c-.53-.38-1-1.54-1.26-3.49s-.56-4.35-.75-7.23S104,74,104,70.5s.08-7.06.23-10.62c.09-1.87.23-4,.4-6.48s.37-5,.62-7.63.51-5.23.8-7.77.6-4.84.94-6.88.66-3.71,1-5,.61-2,.9-2.16a22.12,22.12,0,0,1,7.52-2,6.17,6.17,0,0,1,4.65,1.4,6.51,6.51,0,0,1,1.76,4.47,21.69,21.69,0,0,1-1.13,7.27q-1.66,5.61-2.92,11.55t-2.14,11.77a29.53,29.53,0,0,1,3.07-3.74,17,17,0,0,1,2.77-2.37,19.07,19.07,0,0,1,6.91-2.77,9.64,9.64,0,0,1,5.66.55,6.68,6.68,0,0,1,3.41,3.82,13.22,13.22,0,0,1,.28,7.13q-.43,2.45-.76,5.58c-.22,2.08-.34,4.15-.36,6.19s0,4,.14,5.79a16.6,16.6,0,0,0,.75,4.4q1.22,3.89,3.56,4.53C143.62,88,145.17,87.35,146.7,85.63Z"/></g></g></g></svg>