<svg xmlns="http://www.w3.org/2000/svg" viewBox="0 0 307.99 186.94"><defs><style>.cls-1{fill:#231f20;}</style></defs><title>Asset 12ldpi</title><g id="Layer_2" data-name="Layer 2"><g id="Layer_1-2" data-name="Layer 1"><path class="cls-1" d="M92,54.29a4.07,4.07,0,0,1-1.2.19,4.14,4.14,0,0,1-1.19-.18l-.35-.13C90.17,54.19,91.09,54.23,92,54.29Zm16.7,3.41a3.57,3.57,0,0,0,.56.26,4,4,0,0,0,.66.18Zm89.34.42a3.64,3.64,0,0,0,.63-.16,4.39,4.39,0,0,0,.62-.29C198.87,57.81,198.46,58,198,58.12ZM125.4,66.66a3.8,3.8,0,0,0,1.38,1.09C126.33,67.38,125.86,67,125.4,66.66Zm55.65,1.14a3.92,3.92,0,0,0,1.53-1.19C182.06,67,181.55,67.39,181.05,67.8Zm-30.91,38.5h0l0,.08A.24.24,0,0,1,150.14,106.3Zm8.05-1.14-.39,1.14h.78Zm-8.05,1.14h0l0,.08A.24.24,0,0,1,150.14,106.3Zm157.85,4a4,4,0,0,1-4,4H4a4,4,0,0,1,0-8H17.43c1.8-5.46,5.27-16,6-17.75A70.13,70.13,0,0,1,87.9,46.16H88a70.16,70.16,0,0,1,131.86,0H220a69.87,69.87,0,0,1,66.91,49l3.59,11.12H304A4,4,0,0,1,308,110.3ZM96.41,46.67a69.25,69.25,0,0,1,12,2.51,50.17,50.17,0,0,1,91.14,0,71.08,71.08,0,0,1,12-2.51,62.17,62.17,0,0,0-115.11,0ZM154,28a42.3,42.3,0,0,0-38,24,67.85,67.85,0,0,1,10.55,5.7,30.19,30.19,0,0,1,54.94,0A67.85,67.85,0,0,1,192,51.94,42.31,42.31,0,0,0,154,28ZM107.7,106.3a22.2,22.2,0,0,0-39.6,0Zm21.49,0-1.71-4.54a42.17,42.17,0,0,0-79.15,0l-1.78,4.56H59.44a30.17,30.17,0,0,1,56.92,0Zm21,.08a.24.24,0,0,1,0-.08h0l-2.93-8.63a62.16,62.16,0,0,0-20.42-29.92c-.45-.37-.92-.73-1.38-1.09A62,62,0,0,0,110,58.15h0l-1.22-.44h0A62.61,62.61,0,0,0,92,54.29c-.91-.06-1.83-.1-2.74-.12H87.9A62.12,62.12,0,0,0,30.81,91.72c-.47,1.09-2.86,8.21-5,14.58H38l2.9-7.4A50.17,50.17,0,0,1,135,99l2.75,7.33h12.4ZM154,92.69A69.9,69.9,0,0,1,174.8,62.57a22.17,22.17,0,0,0-41.68,0A69.76,69.76,0,0,1,154,92.69Zm85.87,13.61a22.19,22.19,0,0,0-39.59,0Zm21.44,0-1.67-4.57a42.17,42.17,0,0,0-79.14,0l-1.7,4.56h12.81a30.18,30.18,0,0,1,56.93,0Zm20.85,0-2.8-8.69A61.92,61.92,0,0,0,220,54.16c-.84,0-1.67,0-2.51.05h-.05l-.55,0a62,62,0,0,0-17.63,3.43c-.42.14-.83.29-1.25.45l-.06,0a62.06,62.06,0,0,0-15.4,8.47c-.52.39-1,.78-1.53,1.19a62,62,0,0,0-20.36,30l0,.1-2.46,7.25-.39,1.14h12.41L173,99a50.17,50.17,0,0,1,94.15,0l2.68,7.33Zm-232,49.86a3,3,0,0,0-.51-1.95,1.79,1.79,0,0,0-2.77,0,3.05,3.05,0,0,0-.5,1.93v12.08H29.13V131.51h6a2.37,2.37,0,0,0,1.76-.59,2.26,2.26,0,0,0,0-3,2.41,2.41,0,0,0-1.76-.58H19.33a2.37,2.37,0,0,0-1.76.59,2.25,2.25,0,0,0,0,3,2.37,2.37,0,0,0,1.76.59h6v36.73h-6a2.37,2.37,0,0,0-1.76.59,2.06,2.06,0,0,0-.57,1.49,2.1,2.1,0,0,0,.56,1.48,2.36,2.36,0,0,0,1.77.61H50.12ZM82.49,172a15,15,0,0,0,5.75-3.65,2.37,2.37,0,0,0,.64-1.57,2.14,2.14,0,0,0-.51-1.43c-.67-.81-1.62-.95-2.71,0a15.44,15.44,0,0,1-5.31,3,19.28,19.28,0,0,1-6.26,1.14,12.13,12.13,0,0,1-8.9-3.61,15.55,15.55,0,0,1-4.24-9H88.81v-.49c0-5.48-1.44-10-4.4-13.46A14.45,14.45,0,0,0,73,137.66a14.66,14.66,0,0,0-11.32,5.1,17.67,17.67,0,0,0-4.55,12.16A19.36,19.36,0,0,0,62,168.15a15.61,15.61,0,0,0,12.14,5.5A21.94,21.94,0,0,0,82.49,172ZM65.07,145a11.6,11.6,0,0,1,15.84,0,13.83,13.83,0,0,1,4,7.65H61A13.79,13.79,0,0,1,65.07,145Zm53.59,41.17a14.94,14.94,0,0,0,3.45-2.61,12.76,12.76,0,0,0,2.72-3.58,13.62,13.62,0,0,0,1.22-5.86V143h3.19a2.29,2.29,0,0,0,1.76-.61,2,2,0,0,0,.56-1.47,2.09,2.09,0,0,0-.56-1.51,2.33,2.33,0,0,0-1.76-.61h-6.93v4.69c-2.89-3.86-6.54-5.82-10.86-5.82a12.93,12.93,0,0,0-10.12,5,19.12,19.12,0,0,0,0,23.94,12.92,12.92,0,0,0,10.12,5c4.32,0,8-2,10.86-5.86v7.88a9.45,9.45,0,0,1-.67,3.82,10.12,10.12,0,0,1-3.06,4,6.74,6.74,0,0,1-4.06,1.33l-7.86,0a2.34,2.34,0,0,0-1.77.61,2.15,2.15,0,0,0-.56,1.51,2.08,2.08,0,0,0,.56,1.5,2.39,2.39,0,0,0,1.77.58h7.76A9.62,9.62,0,0,0,118.66,186.14Zm.46-40.61a14.57,14.57,0,0,1,0,18.2,9.69,9.69,0,0,1-7.54,3.68,9.47,9.47,0,0,1-7.51-3.68,14.58,14.58,0,0,1,0-18.18,9.59,9.59,0,0,1,7.51-3.69A9.71,9.71,0,0,1,119.12,145.53Zm41.95,23v3.91H168a2.39,2.39,0,0,0,1.8-.61,2.1,2.1,0,0,0,.56-1.48,2,2,0,0,0-.57-1.49,2.4,2.4,0,0,0-1.79-.59h-3.15V147.8a9.83,9.83,0,0,0-3-7c-2-2.06-4.87-3.11-8.45-3.11a29.17,29.17,0,0,0-7.85,1.6c-3,.91-3.67,1.4-3.92,1.7a2,2,0,0,0-.44,1.34,2.18,2.18,0,0,0,.49,1.45,1.61,1.61,0,0,0,1.28.64,5,5,0,0,0,1.51-.41,27.63,27.63,0,0,1,8.8-2.12c2.64,0,4.64.6,5.93,1.79a5.44,5.44,0,0,1,1.92,4.15v4.5c-1.5-.34-2.93-.59-4.23-.76a33.4,33.4,0,0,0-4.17-.28c-4.79,0-8.5,1.2-11,3.56a11.18,11.18,0,0,0-3.81,8.39,10.31,10.31,0,0,0,2.91,7.4,10.7,10.7,0,0,0,8.07,3C153.13,173.65,157.25,171.92,161.07,168.5Zm-3.64-12.78a22,22,0,0,1,3.64.81v6.41a23.64,23.64,0,0,1-6,5,13.46,13.46,0,0,1-6.38,1.58,7.14,7.14,0,0,1-5.3-1.82,6,6,0,0,1-1.8-4.46,6.3,6.3,0,0,1,2.38-4.94c2.13-1.89,5.16-2.85,9-2.85A32,32,0,0,1,157.43,155.72Zm46.65,14.65a10.14,10.14,0,0,0,3.52-7.54,9.42,9.42,0,0,0-1.64-5.32,10.59,10.59,0,0,0-4.94-3.84A35.47,35.47,0,0,0,193,152c-2.82-.36-4.75-.88-5.72-1.54a3.9,3.9,0,0,1-2.06-3.34,4.2,4.2,0,0,1,1.74-3.24,10.4,10.4,0,0,1,6.83-2,10.73,10.73,0,0,1,6.77,2,4.67,4.67,0,0,1,1.83,3.37,2.72,2.72,0,0,0,.57,1.66,1.79,1.79,0,0,0,2.71-.1,3.08,3.08,0,0,0,.5-1.93v-5.42a3.17,3.17,0,0,0-.5-2,1.77,1.77,0,0,0-2.77,0,2.18,2.18,0,0,0-.41.91,14.1,14.1,0,0,0-8.83-2.72,14.74,14.74,0,0,0-8.54,2.48A8,8,0,0,0,181.4,147a8.31,8.31,0,0,0,5,7.62,28.35,28.35,0,0,0,7.47,1.62,17.7,17.7,0,0,1,7.56,2.29,4.9,4.9,0,0,1,2.42,4.29,6.07,6.07,0,0,1-2.44,4.48c-1.64,1.45-4.2,2.18-7.63,2.18a13.82,13.82,0,0,1-5.9-1.14,7.89,7.89,0,0,1-3.43-2.82,4.72,4.72,0,0,1-.68-2.62,2.3,2.3,0,0,0-.53-1.59,1.78,1.78,0,0,0-2.76,0,3.14,3.14,0,0,0-.48,1.92v6.52a3.08,3.08,0,0,0,.5,1.93,1.75,1.75,0,0,0,2.44.31,1.8,1.8,0,0,0,.64-.87,2.78,2.78,0,0,0,.13-.77,15.9,15.9,0,0,0,10.17,3.25C198.32,173.65,201.75,172.55,204.08,170.37ZM242.9,172a14.7,14.7,0,0,0,5.75-3.65,2.38,2.38,0,0,0,.65-1.57,2.14,2.14,0,0,0-.51-1.43c-.67-.81-1.62-.95-2.71,0a15.44,15.44,0,0,1-5.31,3,19.33,19.33,0,0,1-6.26,1.14,12.11,12.11,0,0,1-8.9-3.61,15.49,15.49,0,0,1-4.24-9h27.86v-.49c.05-5.48-1.43-10-4.39-13.46a14.45,14.45,0,0,0-11.44-5.24,14.66,14.66,0,0,0-11.32,5.1,17.67,17.67,0,0,0-4.55,12.16,19.36,19.36,0,0,0,4.84,13.23,15.59,15.59,0,0,0,12.14,5.5A21.89,21.89,0,0,0,242.9,172Zm-17.42-27a11.61,11.61,0,0,1,15.85,0,13.83,13.83,0,0,1,4,7.65H221.43A13.78,13.78,0,0,1,225.48,145Zm55.91,23.53v3.91h6.93a2.4,2.4,0,0,0,1.8-.61,2.09,2.09,0,0,0,.55-1.48,2.05,2.05,0,0,0-.56-1.49,2.43,2.43,0,0,0-1.79-.59h-3.16V147.8a9.83,9.83,0,0,0-3.05-7c-2-2.06-4.87-3.11-8.45-3.11a29.12,29.12,0,0,0-7.84,1.6c-3,.91-3.68,1.39-3.92,1.7a2,2,0,0,0-.45,1.34,2.18,2.18,0,0,0,.49,1.45,1.62,1.62,0,0,0,1.28.64,4.94,4.94,0,0,0,1.51-.41,27.63,27.63,0,0,1,8.8-2.12c2.64,0,4.64.6,5.93,1.79a5.42,5.42,0,0,1,1.93,4.15v4.5c-1.51-.34-2.93-.59-4.24-.76a33.28,33.28,0,0,0-4.17-.28c-4.79,0-8.49,1.2-11,3.56a11.19,11.19,0,0,0-3.82,8.39,10.26,10.26,0,0,0,2.92,7.4,10.67,10.67,0,0,0,8.06,3C273.44,173.65,277.56,171.92,281.39,168.5Zm-3.65-12.78a22.3,22.3,0,0,1,3.65.81v6.41a23.67,23.67,0,0,1-6,5,13.42,13.42,0,0,1-6.37,1.58,7.17,7.17,0,0,1-5.31-1.82,6,6,0,0,1-1.8-4.46,6.3,6.3,0,0,1,2.38-4.94c2.14-1.89,5.17-2.85,9-2.85A31.94,31.94,0,0,1,277.74,155.72Z"/></g></g></svg>