<svg id="svg2" xmlns="http://www.w3.org/2000/svg" viewBox="0 0 403.25 300"><defs><style>.cls-1{fill:#f2dc9b;}</style></defs><title>UNESCO</title><path class="cls-1" d="M66.52,93.25V217.68c0,3.37-.37,5.06.75,6.74a3,3,0,0,0,2.62,1.69,3.49,3.49,0,0,0,3.19-1.87c1.12-1.69.94-3.38.94-6.94v-124h5.8V220.11c0,8.62-3.18,12.93-9.93,12.93a9.22,9.22,0,0,1-7.12-3C60.9,228,60,224.8,60,220.3v-127Zm62,139-9.36-85.44v85.44h-5.06v-139h6.74l9.56,80.21V93.25h4.31v139Zm56.78-76.45v4.87h-9.18v65.78h10.49v5.8H167.9v-139h17.42v6h-9.18v56.59Zm182-82.26V85.2H39.91V73.58H367.27Zm0,169v11.62H39.91V242.6H367.27Zm18,23.42v11.62H18.93V266H385.26Zm18.37,22.68v11.8H.37V288.7H403.63ZM202,.5,366.52,47.35V59.71l-166-45.16L39.16,60.46h0V48.1Zm127.23,60H295.31l-92-24.92L111.49,59.71l-35,.75h0L203.68,23.92ZM232,133.36h7.12v-27s-.19-7.87-2.06-10.12a10.77,10.77,0,0,0-9-3.93c-4.69.19-5.82,1.5-7.5,3.56-1.88,2.06-2.62,5.62-2.62,9.37s.19,20.42.74,26c.57,5.44,5.81,27.55,8.81,38.23,2.82,10.87,4.13,16.3,4.32,19.3.18,3.18.55,13.87.18,19.11-.18,5.25,0,12.56,0,12.56s.37,5.81-3,5.81c-3.56,0-3.18-5.81-3.18-5.81v-33h-7.13V220.3s-1.87,12,9.38,12c11.43,0,11.43-10.68,11.43-10.68v-30s-.57-9.93-2.44-16.86c-1.87-6.75-7.87-28.3-9.18-34.3-1.5-6.36-2.06-15.74-2.06-24.17s.18-13.67.18-13.67-.18-3.94,3-3.94c3,0,2.82,4.12,2.82,4.12l.18,30.55Zm54.53.37h6.18V101.31c0-5.06-2.81-10.12-9.74-10.12-6.37,0-10.12,4.69-10.12,10.31V223.3c0,5.43,3.75,10.12,10.12,10.12,6.93,0,9.74-4.87,9.74-9.94V187h-6.18V223.3c0,1.88.19,4.12-3.56,4.12-3.94,0-3.56-3.37-3.56-4.68V101.87c0-1.31-.38-4.68,3.56-4.68,3.75,0,3.56,2.44,3.56,4.31v32.23Zm51.72-42.54c-6.37,0-10.87,4.69-10.87,10.31V223.3c0,5.43,4.5,10.12,10.87,10.12,6.93,0,10.49-4.87,10.49-9.94V101.31c0-5.06-3.56-10.12-10.49-10.12Zm4.31,132.11c0,1.88-.56,4.12-4.31,4.12-3.94,0-4.31-3.37-4.31-4.68V101.87c0-1.31.37-4.68,4.31-4.68,3.75,0,4.31,2.44,4.31,4.31V223.3Z" transform="translate(-0.37 -0.5)"/></svg>