<svg xmlns="http://www.w3.org/2000/svg" viewBox="0 0 201.62 333.88"><defs><style>.cls-1{fill:#5f2414;}</style></defs><title>thien-nhien</title><g id="Layer_2" data-name="Layer 2"><g id="thien-nhien"><g id="thien-nhien-2" data-name="thien-nhien"><path class="cls-1" d="M0,0V333.88H201.62V0ZM7,7h8.61V281.64H7ZM7,288.64H32.27v6.69H17V317.6H39.27V302.33H46v24.55H7Zm25.27,13.69v8.27H24v-8.27Zm146.66,24.55H53V295.33H39.27V281.64H22.61V7H146.93V37.43h13.69V51.12h18.31Zm15.69,0h-8.69V51.12h8.69Zm0-282.76h-27V37.43h15.27V15.16H160.62V30.43h-6.69V7h40.69Zm-27-13.69V22.16h8.27v8.27Z"/><path class="cls-1" d="M83.41,141a4.6,4.6,0,0,1,1.84-1.35,1.23,1.23,0,0,1,1.27.1c.27.26.32.69.13,1.3a6,6,0,0,1-1.56,2.19A9.82,9.82,0,0,1,76,145.91a8.79,8.79,0,0,1-6.22-4q-2.08-3.28-2.09-9.81a45,45,0,0,0-.23-5.21,11.07,11.07,0,0,0-.61-2.85c-.25-.61-.56-.94-.92-1a1.59,1.59,0,0,0-1.15.46,4.33,4.33,0,0,0-.86.92,15,15,0,0,0-1,1.47,14.29,14.29,0,0,0-.94,1.92,18.22,18.22,0,0,0-.74,2.11,70.67,70.67,0,0,0-.06,7.93,26.52,26.52,0,0,0,.92,5.95c.11.34-.05.7-.46,1.09a3.89,3.89,0,0,1-1.68.89,5.81,5.81,0,0,1-2.42.13,6,6,0,0,1-2.73-1.2,4.2,4.2,0,0,1-.89-2.47q-.33-2.07-.54-5.13t-.2-6.8q0-3.75.15-7.53c.07-1.32.16-2.85.28-4.59s.26-3.53.44-5.4.35-3.71.56-5.51.42-3.43.66-4.87.47-2.63.69-3.55.43-1.42.63-1.53A15.91,15.91,0,0,1,61.91,96a4.32,4.32,0,0,1,3.29,1,4.52,4.52,0,0,1,1.25,3.16,14.94,14.94,0,0,1-.79,5.15q-1.17,4-2.06,8.18t-1.51,8.34a21.86,21.86,0,0,1,2.17-2.65,11.94,11.94,0,0,1,2-1.68,13.55,13.55,0,0,1,4.9-2,6.84,6.84,0,0,1,4,.39,4.72,4.72,0,0,1,2.43,2.7,9.41,9.41,0,0,1,.2,5.05c-.2,1.16-.38,2.47-.54,3.95S77,130.51,77,132s0,2.81.1,4.1a11.92,11.92,0,0,0,.54,3.11c.57,1.84,1.42,2.91,2.52,3.22S82.32,142.23,83.41,141Z"/><path class="cls-1" d="M76.17,188.09a4.4,4.4,0,0,1,1.89-1.35,1.42,1.42,0,0,1,1.37.1,1.24,1.24,0,0,1,.26,1.3,5,5,0,0,1-1.48,2.2,14.51,14.51,0,0,1-1.94,1.5,14,14,0,0,1-2.47,1.28,14.8,14.8,0,0,1-2.83.79,10.9,10.9,0,0,1-3,.1,7,7,0,0,1-4.36-1.94,10.13,10.13,0,0,1-2.4-4.36,25.37,25.37,0,0,1-.87-6.43c-.05-2.46,0-5.16.28-8.08.07-.88.12-1.77.13-2.65s.05-1.69.1-2.42a18.46,18.46,0,0,1,.23-1.89,1.51,1.51,0,0,1,.57-1.05,12.23,12.23,0,0,1,4.46-2,4.2,4.2,0,0,1,3.18.51,4.14,4.14,0,0,1,1.59,2.86,14,14,0,0,1-.31,5.12q-.66,3.17-1,5.61c-.23,1.63-.36,3.07-.41,4.31a21.41,21.41,0,0,0,.07,3.19,12.18,12.18,0,0,0,.46,2.24,2.77,2.77,0,0,0,.92,1.38,4.4,4.4,0,0,0,1.63.89,3.54,3.54,0,0,0,1.94,0A4,4,0,0,0,76.17,188.09Zm-3.72-33.45a4.49,4.49,0,0,1,.58,2.72,4.41,4.41,0,0,1-.94,2.2,5.17,5.17,0,0,1-2,1.48,7.89,7.89,0,0,1-2.63.61,7.53,7.53,0,0,1-2.76-.38,6.08,6.08,0,0,1-2.44-1.58,2.52,2.52,0,0,1-.51-3.09q.81-1.71,3.92-3.29c.51-.27,1.07-.54,1.66-.79a4.8,4.8,0,0,1,1.79-.41,3,3,0,0,1,1.73.51A5.14,5.14,0,0,1,72.45,154.64Z"/><path class="cls-1" d="M74.56,199.37a30.07,30.07,0,0,1,6.17,8.42,11.49,11.49,0,0,1,1.1,3.39c.12,1-.06,1.57-.54,1.81-.1.07-.36,0-.79-.33s-1-.7-1.6-1.23-1.39-1.15-2.22-1.88S75,208,74.13,207.23s-1.74-1.66-2.63-2.53S69.79,203,69,202.18c-.58.68-1.22,1.41-1.93,2.19s-1.46,1.57-2.22,2.37-1.53,1.59-2.3,2.37-1.5,1.52-2.22,2.2a5,5,0,0,1-2.47,1.4,3.11,3.11,0,0,1-2.09-.36,5,5,0,0,1-1.66-1.63A8.44,8.44,0,0,1,53,208.2a.83.83,0,0,1,.18-.54,6.85,6.85,0,0,1,.92-1.1c.46-.47,1.1-1.08,1.93-1.81S58,203.11,59.36,202a25,25,0,0,1,6-3.59,11.54,11.54,0,0,1,4.54-1,6.92,6.92,0,0,1,2.32.41A6.55,6.55,0,0,1,74.56,199.37Zm6.53,31a4.27,4.27,0,0,1,1-1.25c.31-.22.55-.26.74-.1a1.12,1.12,0,0,1,.25.94,6.82,6.82,0,0,1-.38,1.84,10.39,10.39,0,0,1-2.57,3.92,22.67,22.67,0,0,1-4.41,3.45,23.45,23.45,0,0,1-5.21,2.32,12.54,12.54,0,0,1-5,.56,11.64,11.64,0,0,1-4.8-1.58A10.45,10.45,0,0,1,57.32,237a13,13,0,0,1-1.76-5,20.34,20.34,0,0,1,.18-6.42,12.6,12.6,0,0,1,1.89-4.72A17.71,17.71,0,0,1,61,217a17.91,17.91,0,0,1,4.26-2.67,13.85,13.85,0,0,1,4.49-1.2,9.46,9.46,0,0,1,4.1.53A6.24,6.24,0,0,1,77,216.2a6.78,6.78,0,0,1,1,4.54,12.92,12.92,0,0,1-1.78,5.13,20.07,20.07,0,0,1-9.87,8.28l-.2.11A4,4,0,0,0,67.91,236a5.9,5.9,0,0,0,2.55.59,9.4,9.4,0,0,0,2.93-.44,13.69,13.69,0,0,0,3-1.3,14.11,14.11,0,0,0,2.68-2A11.67,11.67,0,0,0,81.09,230.33Zm-16-3a14.4,14.4,0,0,0,0,3.83,12.47,12.47,0,0,0,3.39-3.55,18.4,18.4,0,0,0,2-4.26,14.48,14.48,0,0,0,.74-4,4.92,4.92,0,0,0-.51-2.71q-.57-.92-1.38-.66a3.38,3.38,0,0,0-1.63,1.61,16.21,16.21,0,0,0-1.53,3.8A36.07,36.07,0,0,0,65.13,227.37Z"/><path class="cls-1" d="M88.74,284.5a4.6,4.6,0,0,1,1.84-1.35,1.23,1.23,0,0,1,1.27.1c.27.26.32.69.13,1.3a6,6,0,0,1-1.56,2.19,11.78,11.78,0,0,1-1.83,1.48,11.35,11.35,0,0,1-2.3,1.18,10.9,10.9,0,0,1-2.62.61,10.36,10.36,0,0,1-2.88-.1,12.63,12.63,0,0,1-3.65-1.15,7.08,7.08,0,0,1-2.58-2.22A10.31,10.31,0,0,1,73,282.89a23.34,23.34,0,0,1-.54-5.43c0-2.21-.07-4-.2-5.25a11,11,0,0,0-.59-2.86c-.25-.61-.55-.92-.89-.94a2,2,0,0,0-1.17.43,6.8,6.8,0,0,0-1.87,2.4,19.34,19.34,0,0,0-1.32,3.6,29,29,0,0,0-.79,4.31,41.54,41.54,0,0,0-.26,4.59c.1.78.23,1.53.39,2.26s.31,1.44.48,2.12c.1.38-.09.73-.59,1.07a5,5,0,0,1-1.88.74,7.4,7.4,0,0,1-2.45.05A5.22,5.22,0,0,1,59,289a3.61,3.61,0,0,1-.67-1.73,36.15,36.15,0,0,1-.53-3.75q-.23-2.32-.36-5.43c-.08-2.08-.13-4.32-.13-6.74,0-2,.06-3.84.18-5.5s.27-3.11.46-4.31a17.63,17.63,0,0,1,.64-2.86c.24-.7.47-1.08.71-1.15a13.07,13.07,0,0,1,4.41-.53,3.36,3.36,0,0,1,2.43,1.17,4.22,4.22,0,0,1,.74,2.68,16.86,16.86,0,0,1-.64,4c-.34,1.25-.61,2.48-.82,3.67s-.35,2.34-.46,3.47a26.7,26.7,0,0,1,2.78-5.64,12.2,12.2,0,0,1,3.45-3.6,13.65,13.65,0,0,1,4.87-2,6.68,6.68,0,0,1,4,.38,4.73,4.73,0,0,1,2.4,2.71,9.09,9.09,0,0,1,.15,5.05q-.31,1.73-.51,3.72c-.14,1.32-.22,2.63-.26,3.93a30.6,30.6,0,0,0,.11,3.64,12.4,12.4,0,0,0,.56,2.93,4.76,4.76,0,0,0,1.14,2.1,3,3,0,0,0,1.61.84,3.36,3.36,0,0,0,1.81-.28A5.16,5.16,0,0,0,88.74,284.5Z"/><path class="cls-1" d="M137.41,161.84a4.6,4.6,0,0,1,1.84-1.35,1.25,1.25,0,0,1,1.27.1c.27.26.32.69.13,1.3a5.91,5.91,0,0,1-1.56,2.2,10.17,10.17,0,0,1-3.87,2.39,10,10,0,0,1-5.26.26,8.81,8.81,0,0,1-6.22-4q-2.08-3.3-2.09-9.82a44.65,44.65,0,0,0-.23-5.2,11.17,11.17,0,0,0-.61-2.86c-.25-.61-.56-.93-.92-1a1.63,1.63,0,0,0-1.15.46,4.33,4.33,0,0,0-.86.92,15.27,15.27,0,0,0-1,1.48,14.15,14.15,0,0,0-.94,1.91,18.37,18.37,0,0,0-.74,2.12,70.65,70.65,0,0,0-.06,7.93,26.42,26.42,0,0,0,.92,5.94c.11.34,0,.7-.46,1.1a4,4,0,0,1-1.68.89,6.17,6.17,0,0,1-2.42.13,6,6,0,0,1-2.73-1.2,4.27,4.27,0,0,1-.89-2.48c-.22-1.37-.4-3.08-.54-5.12s-.2-4.31-.2-6.81,0-5,.15-7.52c.07-1.33.16-2.86.28-4.59s.26-3.54.44-5.41.35-3.7.56-5.51.42-3.42.66-4.87.47-2.62.69-3.54.43-1.43.63-1.53a15.67,15.67,0,0,1,5.33-1.4,4.32,4.32,0,0,1,3.29,1,4.54,4.54,0,0,1,1.25,3.16,14.91,14.91,0,0,1-.79,5.15q-1.17,4-2.06,8.19t-1.51,8.34a22,22,0,0,1,2.17-2.66,13,13,0,0,1,2-1.68,13.52,13.52,0,0,1,4.9-2,6.76,6.76,0,0,1,4,.38,4.72,4.72,0,0,1,2.43,2.7,9.42,9.42,0,0,1,.2,5q-.3,1.74-.54,4c-.15,1.47-.23,2.94-.25,4.38s0,2.81.1,4.11a12,12,0,0,0,.54,3.11c.57,1.83,1.42,2.9,2.52,3.21S136.32,163.07,137.41,161.84Z"/><path class="cls-1" d="M130.17,208.93a4.35,4.35,0,0,1,1.89-1.36,1.42,1.42,0,0,1,1.37.11c.31.25.39.68.26,1.3a5.07,5.07,0,0,1-1.48,2.19,14.51,14.51,0,0,1-1.94,1.5A13.38,13.38,0,0,1,127.8,214a14.11,14.11,0,0,1-2.83.79,10.9,10.9,0,0,1-3,.1,6.93,6.93,0,0,1-4.36-1.94,10.07,10.07,0,0,1-2.4-4.36,25.35,25.35,0,0,1-.87-6.42c0-2.47.05-5.16.28-8.09.07-.88.12-1.76.13-2.65s0-1.69.1-2.42a18.82,18.82,0,0,1,.23-1.89,1.51,1.51,0,0,1,.57-1,12.1,12.1,0,0,1,4.46-2,3.72,3.72,0,0,1,4.77,3.37,14,14,0,0,1-.31,5.12q-.66,3.16-1,5.61c-.23,1.64-.36,3.07-.41,4.31a21.34,21.34,0,0,0,.07,3.19,12.31,12.31,0,0,0,.46,2.25,2.74,2.74,0,0,0,.92,1.37,4.57,4.57,0,0,0,1.63.9,3.64,3.64,0,0,0,1.94,0A3.92,3.92,0,0,0,130.17,208.93Zm-3.72-33.46a4.54,4.54,0,0,1,.58,2.73,4.41,4.41,0,0,1-.94,2.19,5.17,5.17,0,0,1-2,1.48,7.65,7.65,0,0,1-2.63.61,7.32,7.32,0,0,1-2.76-.38,6,6,0,0,1-2.44-1.58,2.52,2.52,0,0,1-.51-3.09c.54-1.14,1.85-2.23,3.92-3.29.51-.27,1.07-.53,1.66-.79a4.79,4.79,0,0,1,1.79-.4,3,3,0,0,1,1.73.51A5,5,0,0,1,126.45,175.47Z"/><path class="cls-1" d="M128.56,220.21a27.41,27.41,0,0,1,3.67,4.23,28.34,28.34,0,0,1,2.5,4.18,11.49,11.49,0,0,1,1.1,3.39c.12,1-.06,1.58-.54,1.81-.1.07-.36,0-.79-.33s-1-.7-1.6-1.22-1.39-1.16-2.22-1.89-1.68-1.5-2.55-2.32-1.74-1.66-2.63-2.52-1.71-1.71-2.5-2.53c-.58.68-1.22,1.41-1.93,2.19s-1.46,1.58-2.22,2.38l-2.3,2.37q-1.14,1.17-2.22,2.19a4.92,4.92,0,0,1-2.47,1.4,3.17,3.17,0,0,1-2.09-.35,5,5,0,0,1-1.66-1.64A8.44,8.44,0,0,1,107,229q0-.15.18-.54a6.89,6.89,0,0,1,.92-1.09c.46-.48,1.1-1.08,1.93-1.81s1.93-1.64,3.29-2.73a24.71,24.71,0,0,1,6-3.6,11.32,11.32,0,0,1,4.54-1,6.68,6.68,0,0,1,2.32.41A6.55,6.55,0,0,1,128.56,220.21Zm6.53,30.95a4.27,4.27,0,0,1,1-1.25c.31-.22.55-.25.74-.1a1.12,1.12,0,0,1,.25.94,6.82,6.82,0,0,1-.38,1.84,10.35,10.35,0,0,1-2.57,3.93,22.63,22.63,0,0,1-4.41,3.44,23,23,0,0,1-5.21,2.32,12.36,12.36,0,0,1-5,.56,11.5,11.5,0,0,1-4.8-1.58,10.45,10.45,0,0,1-3.42-3.39,13.06,13.06,0,0,1-1.76-5,20.41,20.41,0,0,1,.18-6.43,12.67,12.67,0,0,1,1.89-4.72,17.95,17.95,0,0,1,7.65-6.5,13.85,13.85,0,0,1,4.49-1.2,9.31,9.31,0,0,1,4.1.54A6.19,6.19,0,0,1,131,237a6.73,6.73,0,0,1,1,4.53,12.87,12.87,0,0,1-1.78,5.13,19.21,19.21,0,0,1-4.06,4.79,19.62,19.62,0,0,1-5.81,3.5l-.2.1a4,4,0,0,0,1.81,1.78,5.9,5.9,0,0,0,2.55.59,9.68,9.68,0,0,0,2.93-.43,14.19,14.19,0,0,0,3-1.3,13.76,13.76,0,0,0,2.68-2A11.67,11.67,0,0,0,135.09,251.16Zm-16-3a14.39,14.39,0,0,0,0,3.83,12.43,12.43,0,0,0,3.39-3.54,18.8,18.8,0,0,0,2-4.26,14.62,14.62,0,0,0,.74-4,4.86,4.86,0,0,0-.51-2.7c-.38-.62-.84-.84-1.38-.67a3.38,3.38,0,0,0-1.63,1.61,16.4,16.4,0,0,0-1.53,3.8A36.07,36.07,0,0,0,119.13,248.2Z"/><path class="cls-1" d="M142.74,305.33a4.6,4.6,0,0,1,1.84-1.35,1.26,1.26,0,0,1,1.27.1c.27.26.32.69.13,1.3a5.91,5.91,0,0,1-1.56,2.2,12.39,12.39,0,0,1-1.83,1.48,11.84,11.84,0,0,1-2.3,1.17,10.61,10.61,0,0,1-5.5.51,12.63,12.63,0,0,1-3.65-1.15,6.9,6.9,0,0,1-2.58-2.22,10.25,10.25,0,0,1-1.55-3.64,23.34,23.34,0,0,1-.54-5.43c0-2.21-.07-4-.2-5.26a10.81,10.81,0,0,0-.59-2.85c-.25-.62-.55-.93-.89-.95a2,2,0,0,0-1.17.44,6.67,6.67,0,0,0-1.87,2.39,19.89,19.89,0,0,0-1.32,3.6,29,29,0,0,0-.79,4.31,41.54,41.54,0,0,0-.26,4.59c.1.78.23,1.54.39,2.27s.31,1.43.48,2.11c.1.38-.09.74-.59,1.08a5.13,5.13,0,0,1-1.88.74,7.4,7.4,0,0,1-2.45.05,5.23,5.23,0,0,1-2.37-.95,3.61,3.61,0,0,1-.67-1.73,35.36,35.36,0,0,1-.53-3.75q-.23-2.33-.36-5.43c-.08-2.07-.13-4.32-.13-6.73,0-2,.06-3.84.18-5.51s.27-3.1.46-4.31a17.63,17.63,0,0,1,.64-2.86c.24-.69.47-1.08.71-1.14a12.87,12.87,0,0,1,4.41-.54A3.36,3.36,0,0,1,120.1,279a4.24,4.24,0,0,1,.74,2.68,16.86,16.86,0,0,1-.64,4c-.34,1.26-.61,2.48-.82,3.67s-.35,2.35-.46,3.47a26.94,26.94,0,0,1,2.78-5.64,12,12,0,0,1,3.45-3.59,13.5,13.5,0,0,1,4.87-2A6.68,6.68,0,0,1,134,282a4.74,4.74,0,0,1,2.4,2.7,9.09,9.09,0,0,1,.15,5c-.21,1.15-.38,2.4-.51,3.72s-.22,2.64-.26,3.93a30.77,30.77,0,0,0,.11,3.65,12.61,12.61,0,0,0,.56,2.93,4.72,4.72,0,0,0,1.14,2.09,2.87,2.87,0,0,0,1.61.84,3.27,3.27,0,0,0,1.81-.28A4.92,4.92,0,0,0,142.74,305.33Z"/><path class="cls-1" d="M113.6,20.19A3.63,3.63,0,0,1,115.69,19a1.63,1.63,0,0,1,1.48.43,1.93,1.93,0,0,1,.25,1.66,5.5,5.5,0,0,1-1.66,2.55,44.52,44.52,0,0,1-6.08,4.94,42.21,42.21,0,0,1-7.28,3.92A42.92,42.92,0,0,1,94.13,35a39.59,39.59,0,0,1-9,.72q.5,4.47,1,9.54c.33,3.38.5,6.95.5,10.69A45,45,0,0,1,84.66,69.4a33.23,33.23,0,0,1-5.44,10.69A23,23,0,0,1,71,86.82a17.39,17.39,0,0,1-10.37,1.41,15.43,15.43,0,0,1-6.88-2.63,13.69,13.69,0,0,1-4-4.43,10.83,10.83,0,0,1-1.4-5,7.07,7.07,0,0,1,1-4.17A7.52,7.52,0,0,1,54,68.9a8,8,0,0,1,3.31,0A9.48,9.48,0,0,1,61,70.66,1.45,1.45,0,0,1,61.29,72a23.2,23.2,0,0,1-.39,2.31c-.2.88-.39,1.81-.58,2.77a11.17,11.17,0,0,0-.22,2.7A4.2,4.2,0,0,0,60.82,82a3.09,3.09,0,0,0,2.24,1.16c1.15.14,2.26-.47,3.34-1.84a19.23,19.23,0,0,0,2.88-6,55,55,0,0,0,2-9.58A99.08,99.08,0,0,0,72,53.16c0-3.6.12-7,.37-10.22a61.46,61.46,0,0,1,1.29-9A25.84,25.84,0,0,1,70,32.64,55.92,55.92,0,0,0,61,29.94a26.56,26.56,0,0,0-7.85-.57,11.84,11.84,0,0,0-6,2.12,9.53,9.53,0,0,0-3.49,5.33,18.71,18.71,0,0,0-.79,6.37,10.25,10.25,0,0,0,1.26,4.47,6.05,6.05,0,0,0,2.7,2.52,5.86,5.86,0,0,0,3.49.43,7.71,7.71,0,0,0,3.56-1.77,12.23,12.23,0,0,0,3-4.1,6.32,6.32,0,0,1,2.34-2.81,5.44,5.44,0,0,1,3.06-.9,5.73,5.73,0,0,1,3.09,1,7.58,7.58,0,0,1,2.52,3,5.05,5.05,0,0,1,.33,3.56,10.53,10.53,0,0,1-2,4,15.39,15.39,0,0,1-3.89,3.53A15.88,15.88,0,0,1,57,58.42a16.64,16.64,0,0,1-8.46-.32,17.64,17.64,0,0,1-7.31-4.25,17.11,17.11,0,0,1-4.46-7.49,17.81,17.81,0,0,1,.14-10,21.68,21.68,0,0,1,5.62-9.72,28.53,28.53,0,0,1,9.25-6.23,32.43,32.43,0,0,1,11.05-2.49A28.42,28.42,0,0,1,73.78,19.4q1.38.5,2.7.93l2.63.87a22.19,22.19,0,0,1,4.83-4.9,4.74,4.74,0,0,1,2.26-1,1.67,1.67,0,0,1,1.41.4,1.25,1.25,0,0,1,.25,1.22,2.5,2.5,0,0,1-1.12,1.41,4.15,4.15,0,0,0-1.43,1.76,11.35,11.35,0,0,0-.8,2.63q10.38,2.59,17.68,2.09T113.6,20.19Z"/><path class="cls-1" d="M147.16,52a11.66,11.66,0,0,1,3.6-3.06,5.21,5.21,0,0,1,3-.72,1.64,1.64,0,0,1,1.48,1.3,4.49,4.49,0,0,1-.79,3.06,32.26,32.26,0,0,0-1.91,4.07,23.1,23.1,0,0,0-1.22,5.76,71.31,71.31,0,0,0-.25,9.39q.13,5.76,1,14.91a57.31,57.31,0,0,1,.11,10.15,67.67,67.67,0,0,1-1.4,9.61,40,40,0,0,1-2.63,8,17,17,0,0,1-3.64,5.37,8.85,8.85,0,0,1-2.16,1.36,21.22,21.22,0,0,1-2.84,1.12,14.35,14.35,0,0,1-2.77.61,2.7,2.7,0,0,1-1.8-.21,24.19,24.19,0,0,1-4.68-4.4,62.88,62.88,0,0,1-4.93-6.69c-1.66-2.55-3.28-5.3-4.86-8.28s-3.08-6-4.47-9c-.77-1.63-1.58-3.37-2.45-5.22s-1.77-3.73-2.73-5.65c.09,3.21.09,6.43,0,9.64s-.34,6.28-.72,9.18a51.36,51.36,0,0,1-1.69,8,21.08,21.08,0,0,1-3,6.23,11.59,11.59,0,0,1-4.39,3.78,10.18,10.18,0,0,1-6,.72,13.2,13.2,0,0,1-6.62-2.7,11.31,11.31,0,0,1-4.29-9.68,9.36,9.36,0,0,1,1.19-4.25,8.67,8.67,0,0,1,2.12-2.31A6.31,6.31,0,0,1,90.24,101a7.72,7.72,0,0,1,3.28.21,10.72,10.72,0,0,1,3.6,1.91c.19.14.2.55,0,1.22s-.41,1.47-.72,2.38-.61,1.88-.9,2.92a13.41,13.41,0,0,0-.5,2.88,4.16,4.16,0,0,0,.47,2.3,2.53,2.53,0,0,0,2,1.19,3.83,3.83,0,0,0,3.67-1.62A15,15,0,0,0,103.6,109a46.53,46.53,0,0,0,1.33-8.14q.39-4.71.36-10c0-3.55-.18-7.22-.47-11s-.67-7.48-1.15-11.08c-.19-1.4-.32-2.67-.4-3.82s-.13-2.21-.18-3.17a26.42,26.42,0,0,1,.15-5.51,14.6,14.6,0,0,1,1.33-4.57,7.8,7.8,0,0,1,2.48-3,4.88,4.88,0,0,1,3.68-.68,4.66,4.66,0,0,0,1,.14.54.54,0,0,1,.54.33,3.07,3.07,0,0,1,.14,1.15c0,.55,0,1.4-.07,2.56a10.4,10.4,0,0,0,.69,3.49q.75,2.34,2.05,5.36c.86,2,1.86,4.21,3,6.59s2.29,4.75,3.49,7.13,2.38,4.69,3.56,7,2.27,4.29,3.28,6.12c.52,1,1.22,2.22,2.09,3.78s1.8,3.21,2.8,5,2,3.54,3.1,5.37l2.88,5c.86,1.48,1.59,2.72,2.19,3.7a8.84,8.84,0,0,0,1.12,1.62c.19.15.33-.18.4-1a33.28,33.28,0,0,0,0-4.07q-.15-2.87-.54-7.56t-1-11.52q-.65-6.84-.69-12.27a64.2,64.2,0,0,1,.62-9.83,33.07,33.07,0,0,1,2-7.81A22,22,0,0,1,147.16,52Z"/></g></g></g></svg>