<svg xmlns="http://www.w3.org/2000/svg" viewBox="0 0 201.62 333.88"><defs><style>.cls-1{fill:#5f2414;}</style></defs><title>thu-vien</title><g id="Layer_2" data-name="Layer 2"><g id="thu-vien"><g id="thu-vien-2" data-name="thu-vien"><path class="cls-1" d="M0,0V333.88H201.62V0ZM7,7h8.61V281.64H7ZM7,288.64H32.27v6.69H17V317.6H39.27V302.33H46v24.55H7Zm25.27,13.69v8.27H24v-8.27Zm146.66,24.55H53V295.33H39.27V281.64H22.61V7H146.93V37.43h13.69V51.12h18.31Zm15.69,0h-8.69V51.12h8.69Zm0-282.76h-27V37.43h15.27V15.16H160.62V30.43h-6.69V7h40.69Zm-27-13.69V22.16h8.27v8.27Z"/><path class="cls-1" d="M114.62,160.18a10.35,10.35,0,0,1,3.74-3.17,2.43,2.43,0,0,1,2.45,0,2.36,2.36,0,0,1,.54,2.3,8.59,8.59,0,0,1-2,3.82,61.67,61.67,0,0,0-7.27,13.07q-3.61,8.31-7.06,19-2.75,8.35-4.57,13.9t-3.13,9.14Q96,221.88,95.25,224c-.53,1.42-1,2.63-1.37,3.64-.1.24-.43.47-1,.68a8.5,8.5,0,0,1-2.16.47,18.17,18.17,0,0,1-2.91.07,11.45,11.45,0,0,1-3.14-.57,16.9,16.9,0,0,1-5.58-3.06,20.07,20.07,0,0,1-4.57-5.83,50.93,50.93,0,0,1-3.85-9.58,143.83,143.83,0,0,1-3.42-14.29q-1.65-8.28-3.06-14t-2.56-9.58c-.76-2.54-1.44-4.56-2-6s-1.06-2.64-1.44-3.45-.66-1.42-.83-1.8a1.77,1.77,0,0,1-.11-1.15,2.54,2.54,0,0,1,1.51-1.73,9.51,9.51,0,0,1,3-.87,17.6,17.6,0,0,1,3.49-.07,11.92,11.92,0,0,1,3.17.65,10.09,10.09,0,0,1,5.11,4.1A32.07,32.07,0,0,1,77,169a88.58,88.58,0,0,1,2.7,10.08q1.18,5.63,2.56,11.81c.76,3.55,1.56,7.08,2.37,10.58s1.56,6.7,2.24,9.58c.76,3.36,1.51,6.58,2.23,9.65q1.08-3.24,3.45-9.47T98.13,195q1.58-5.17,3.49-10.19t4-9.5q2.09-4.5,4.35-8.35A51.22,51.22,0,0,1,114.62,160.18Z"/><path class="cls-1" d="M125.28,87.56a4.33,4.33,0,0,1,1.83-1.35,1.23,1.23,0,0,1,1.28.1c.27.25.31.69.12,1.3A5.8,5.8,0,0,1,127,89.8a10.19,10.19,0,0,1-3.88,2.4,10,10,0,0,1-5.25.26,8.8,8.8,0,0,1-6.22-4c-1.4-2.19-2.09-5.46-2.09-9.82a47.13,47.13,0,0,0-.23-5.2,11.43,11.43,0,0,0-.62-2.85c-.25-.62-.56-.94-.91-1a1.57,1.57,0,0,0-1.15.46,4.8,4.8,0,0,0-.87.91,17.4,17.4,0,0,0-1,1.48,15.6,15.6,0,0,0-.94,1.92,18.22,18.22,0,0,0-.74,2.11,68.22,68.22,0,0,0,0,7.93,25.24,25.24,0,0,0,.92,5.94c.1.34,0,.71-.46,1.1a4,4,0,0,1-1.68.89,5.87,5.87,0,0,1-2.43.13,6,6,0,0,1-2.73-1.2,4.2,4.2,0,0,1-.89-2.47c-.22-1.38-.4-3.09-.53-5.13S95,79.37,95,76.87s0-5,.16-7.52c.06-1.32.16-2.85.28-4.59s.26-3.53.43-5.4.36-3.71.56-5.51.42-3.43.66-4.87.47-2.63.69-3.55.43-1.42.64-1.53a15.85,15.85,0,0,1,5.33-1.4,4.35,4.35,0,0,1,3.29,1,4.57,4.57,0,0,1,1.25,3.16,15.44,15.44,0,0,1-.79,5.15c-.79,2.65-1.47,5.38-2.07,8.18s-1.09,5.59-1.5,8.34a20.93,20.93,0,0,1,2.16-2.65,12,12,0,0,1,2-1.68A13.51,13.51,0,0,1,113,62a6.87,6.87,0,0,1,4,.39,4.74,4.74,0,0,1,2.42,2.7,9.31,9.31,0,0,1,.2,5c-.2,1.15-.38,2.47-.53,4s-.24,2.94-.26,4.39,0,2.81.11,4.1a12.05,12.05,0,0,0,.53,3.11c.58,1.84,1.42,2.91,2.53,3.22S124.19,88.78,125.28,87.56Z"/><path class="cls-1" d="M125.28,142.56a4.27,4.27,0,0,1,1.88-1.35,1.42,1.42,0,0,1,1.38.1c.31.25.38.69.23,1.3a5.25,5.25,0,0,1-1.5,2.19,10.62,10.62,0,0,1-3.91,2.4,10.11,10.11,0,0,1-5.28.26,8.6,8.6,0,0,1-6.47-4.59,7.66,7.66,0,0,1-1.38,1.93,9.66,9.66,0,0,1-3.75,2.27,10.21,10.21,0,0,1-4.56.54,6.4,6.4,0,0,1-3.7-1.53,8.32,8.32,0,0,1-2.17-3.42,20.45,20.45,0,0,1-1-5.07,55.83,55.83,0,0,1-.15-6.46c0-1.35.11-2.71.23-4s.27-2.57.46-3.67a17.3,17.3,0,0,1,.66-2.76c.26-.73.54-1.14.84-1.24a13.48,13.48,0,0,1,5-1,4,4,0,0,1,2.93,1.2,4.59,4.59,0,0,1,1,3.06,13.59,13.59,0,0,1-.84,4.52,38,38,0,0,0-1.32,5.15,18.72,18.72,0,0,0-.26,5.66,11.3,11.3,0,0,0,1.25,4.49,1.13,1.13,0,0,0,2,.25,5.81,5.81,0,0,0,1.1-1.43,14.71,14.71,0,0,0,.94-1.91,17.84,17.84,0,0,0,.69-1.91,7.26,7.26,0,0,0,.33-1.48c0-.37-.05-.76-.05-1.15v-5.48c0-1.63,0-3.21.08-4.74a38.42,38.42,0,0,1,.31-4c.15-1.14.36-1.79.63-2a11,11,0,0,1,5.28-2.07,3.37,3.37,0,0,1,3.24,1.61,5.08,5.08,0,0,0,.84-.74c.19-.22.25-.35.18-.38a6.9,6.9,0,0,1-3.54-2.91,3.45,3.45,0,0,1-.23-3,5.66,5.66,0,0,1,.81-1.27,4,4,0,0,1,1.3-1,5.07,5.07,0,0,1,1.81-.45,6.85,6.85,0,0,1,2.35.28,5.84,5.84,0,0,1,2.5,1.42,4.59,4.59,0,0,1,1.25,2.22,5.11,5.11,0,0,1-.21,2.73,8.31,8.31,0,0,1-1.81,3,12.21,12.21,0,0,1-2,1.66,10.82,10.82,0,0,1-2.47,1.25,15.63,15.63,0,0,1-.31,4.18c-.2,1.15-.39,2.46-.56,3.92S119,132,119,133.46a35.14,35.14,0,0,0,.13,4,8.76,8.76,0,0,0,.74,3,7,7,0,0,0,.87,1.48,4.72,4.72,0,0,0,1.27,1.22,2.5,2.5,0,0,0,1.53.41A2.73,2.73,0,0,0,125.28,142.56Z"/><path class="cls-1" d="M141.85,194.52a4.44,4.44,0,0,1,1.88-1.35,1.45,1.45,0,0,1,1.38.1,1.24,1.24,0,0,1,.26,1.3,5.09,5.09,0,0,1-1.48,2.2,14.51,14.51,0,0,1-1.94,1.5,14.11,14.11,0,0,1-2.48,1.28,14.6,14.6,0,0,1-2.83.79,10.81,10.81,0,0,1-2.95.1,7,7,0,0,1-4.36-1.94,9.93,9.93,0,0,1-2.4-4.36,24.93,24.93,0,0,1-.87-6.43,79.45,79.45,0,0,1,.28-8.08c.07-.88.11-1.77.13-2.65s0-1.69.1-2.43a16.1,16.1,0,0,1,.23-1.88,1.51,1.51,0,0,1,.56-1,12.2,12.2,0,0,1,4.46-2,4.23,4.23,0,0,1,3.19.51,4.13,4.13,0,0,1,1.58,2.85,13.78,13.78,0,0,1-.3,5.13q-.67,3.16-1,5.61c-.22,1.63-.35,3.07-.41,4.31a21.27,21.27,0,0,0,.08,3.19,11.4,11.4,0,0,0,.46,2.24,2.77,2.77,0,0,0,.92,1.38,4.47,4.47,0,0,0,1.63.89,3.54,3.54,0,0,0,1.94,0A4,4,0,0,0,141.85,194.52Zm-3.73-33.45a4.51,4.51,0,0,1,.59,2.72,4.41,4.41,0,0,1-.94,2.2,5.21,5.21,0,0,1-2,1.48,7.83,7.83,0,0,1-2.63.61,7.5,7.5,0,0,1-2.75-.38,6,6,0,0,1-2.45-1.59,2.53,2.53,0,0,1-.51-3.08q.82-1.71,3.93-3.29c.51-.27,1.06-.54,1.66-.79a4.8,4.8,0,0,1,1.78-.41,3,3,0,0,1,1.74.51A5.13,5.13,0,0,1,138.12,161.07Z"/><path class="cls-1" d="M140.24,212.8a29,29,0,0,1,3.67,4.23,27.89,27.89,0,0,1,2.5,4.19,11.49,11.49,0,0,1,1.1,3.39c.12,1-.06,1.57-.54,1.81-.1.07-.36,0-.79-.33s-1-.7-1.6-1.23-1.39-1.15-2.22-1.88-1.69-1.51-2.55-2.32-1.75-1.66-2.63-2.53-1.72-1.71-2.5-2.52c-.58.68-1.22,1.41-1.94,2.19s-1.45,1.57-2.22,2.37-1.53,1.59-2.29,2.37-1.51,1.52-2.22,2.2a5,5,0,0,1-2.47,1.4,3.11,3.11,0,0,1-2.09-.36,5,5,0,0,1-1.66-1.63,8.15,8.15,0,0,1-1.07-2.53c0-.1,0-.28.18-.53a7.22,7.22,0,0,1,.91-1.1c.46-.47,1.11-1.08,1.94-1.81s1.93-1.64,3.29-2.73a24.78,24.78,0,0,1,6-3.59,11.54,11.54,0,0,1,4.54-1,7,7,0,0,1,2.32.41A6.64,6.64,0,0,1,140.24,212.8Zm6.53,31a4.27,4.27,0,0,1,1-1.25c.3-.22.55-.26.74-.1a1.16,1.16,0,0,1,.25.94,7.24,7.24,0,0,1-.38,1.84,10.31,10.31,0,0,1-2.58,3.92,22.09,22.09,0,0,1-4.41,3.45,23.18,23.18,0,0,1-5.2,2.32,12.58,12.58,0,0,1-5,.56,11.65,11.65,0,0,1-4.79-1.58,10.29,10.29,0,0,1-3.42-3.4,13,13,0,0,1-1.76-5,20.05,20.05,0,0,1,.18-6.42,12.6,12.6,0,0,1,1.89-4.72,17.71,17.71,0,0,1,3.39-3.83A17.91,17.91,0,0,1,131,227.8a13.78,13.78,0,0,1,4.49-1.2,9.46,9.46,0,0,1,4.1.53,6.28,6.28,0,0,1,3.09,2.5,6.78,6.78,0,0,1,1,4.54,13.08,13.08,0,0,1-1.78,5.13,20.07,20.07,0,0,1-9.87,8.28l-.21.11a4.14,4.14,0,0,0,1.81,1.78,6.12,6.12,0,0,0,2.55.59,9.72,9.72,0,0,0,2.94-.44,13.69,13.69,0,0,0,3-1.3,14.11,14.11,0,0,0,2.68-2A12.29,12.29,0,0,0,146.77,243.76Zm-13.26,22.9a3.44,3.44,0,0,1-1.58-.28,4.43,4.43,0,0,1-1.35-.9,3.83,3.83,0,0,1-.92-1.32,2.87,2.87,0,0,1-.21-1.58,3.24,3.24,0,0,1,.77-1.58,6,6,0,0,1,2-1.43,7,7,0,0,1,1.3-.51,3.42,3.42,0,0,1,1.38-.13,2.81,2.81,0,0,1,1.38.61,4.84,4.84,0,0,1,1.25,1.66,3.12,3.12,0,0,1,.3,2,3.52,3.52,0,0,1-.84,1.68,5.36,5.36,0,0,1-1.56,1.2A4.65,4.65,0,0,1,133.51,266.66ZM130.8,240.8a14.4,14.4,0,0,0,0,3.83,12.78,12.78,0,0,0,3.4-3.55,18.4,18.4,0,0,0,2-4.26,14.55,14.55,0,0,0,.74-4,4.9,4.9,0,0,0-.51-2.7q-.57-.91-1.38-.66a3.29,3.29,0,0,0-1.63,1.61,15.87,15.87,0,0,0-1.53,3.79A37.43,37.43,0,0,0,130.8,240.8Z"/><path class="cls-1" d="M149.7,304.93a4.42,4.42,0,0,1,1.84-1.35,1.21,1.21,0,0,1,1.27.1c.27.25.32.69.13,1.3a6,6,0,0,1-1.56,2.19,11.78,11.78,0,0,1-1.83,1.48,11.35,11.35,0,0,1-2.3,1.18,10.9,10.9,0,0,1-2.62.61,10.44,10.44,0,0,1-2.89-.1,12.66,12.66,0,0,1-3.64-1.15,7.08,7.08,0,0,1-2.58-2.22,10.31,10.31,0,0,1-1.55-3.65,23.34,23.34,0,0,1-.54-5.43c0-2.21-.07-4-.2-5.25a10.9,10.9,0,0,0-.59-2.86c-.25-.61-.55-.92-.89-.94a2,2,0,0,0-1.17.43,6.8,6.8,0,0,0-1.87,2.4,18.8,18.8,0,0,0-1.32,3.59,29.2,29.2,0,0,0-.79,4.31,41.54,41.54,0,0,0-.26,4.59c.1.79.23,1.54.39,2.27s.31,1.44.48,2.12c.1.37-.09.73-.59,1.07a5,5,0,0,1-1.88.74,7.4,7.4,0,0,1-2.45.05,5.22,5.22,0,0,1-2.37-.94,3.66,3.66,0,0,1-.67-1.74,35.51,35.51,0,0,1-.53-3.74c-.15-1.55-.27-3.36-.36-5.44s-.13-4.31-.13-6.73c0-2,.06-3.84.18-5.51s.27-3.1.46-4.3a17.63,17.63,0,0,1,.64-2.86c.24-.7.47-1.08.71-1.15a13.07,13.07,0,0,1,4.41-.53,3.36,3.36,0,0,1,2.43,1.17,4.2,4.2,0,0,1,.74,2.68,16.79,16.79,0,0,1-.64,4c-.34,1.26-.61,2.49-.82,3.68s-.35,2.34-.46,3.46a26.61,26.61,0,0,1,2.78-5.63,12.08,12.08,0,0,1,3.45-3.6,13.65,13.65,0,0,1,4.87-2,6.6,6.6,0,0,1,4,.38,4.73,4.73,0,0,1,2.4,2.71,9.06,9.06,0,0,1,.15,5c-.21,1.16-.38,2.4-.51,3.73s-.22,2.63-.26,3.92a30.7,30.7,0,0,0,.11,3.65,12.4,12.4,0,0,0,.56,2.93,4.66,4.66,0,0,0,1.14,2.09,3,3,0,0,0,1.61.85,3.36,3.36,0,0,0,1.81-.28A5.16,5.16,0,0,0,149.7,304.93Z"/><path class="cls-1" d="M112.07,23.64a3.6,3.6,0,0,1,2.09-1.18,1.6,1.6,0,0,1,1.48.43,1.93,1.93,0,0,1,.25,1.66,5.42,5.42,0,0,1-1.66,2.55A43.72,43.72,0,0,1,108.15,32,42.15,42.15,0,0,1,100.88,36a43.23,43.23,0,0,1-8.28,2.52,40.76,40.76,0,0,1-9,.72c.34,3,.67,6.15,1,9.54a107,107,0,0,1,.5,10.69,44.72,44.72,0,0,1-1.94,13.43,33.33,33.33,0,0,1-5.44,10.69,22.82,22.82,0,0,1-8.24,6.73,17.38,17.38,0,0,1-10.37,1.4,15.43,15.43,0,0,1-6.87-2.62,13.73,13.73,0,0,1-4-4.43,11.08,11.08,0,0,1-1.4-5,7.12,7.12,0,0,1,1-4.18,7.6,7.6,0,0,1,1.94-1.94,7.4,7.4,0,0,1,2.77-1.19,8.27,8.27,0,0,1,3.32,0,9.51,9.51,0,0,1,3.63,1.73,1.44,1.44,0,0,1,.33,1.33c-.08.65-.21,1.42-.4,2.3s-.38,1.82-.58,2.77a10.73,10.73,0,0,0-.21,2.7,4.12,4.12,0,0,0,.72,2.2,3,3,0,0,0,2.23,1.15c1.15.15,2.27-.47,3.35-1.83a19.19,19.19,0,0,0,2.88-6,54.91,54.91,0,0,0,2-9.57,99.2,99.2,0,0,0,.72-12.53q0-5.4.36-10.22a62.85,62.85,0,0,1,1.29-9,26.29,26.29,0,0,1-3.67-1.3,55.92,55.92,0,0,0-8.93-2.7,26.86,26.86,0,0,0-7.84-.58,11.94,11.94,0,0,0-6,2.13,9.58,9.58,0,0,0-3.49,5.33,18.94,18.94,0,0,0-.79,6.37,10.16,10.16,0,0,0,1.26,4.46,6,6,0,0,0,2.7,2.52,5.71,5.71,0,0,0,3.49.43,7.62,7.62,0,0,0,3.57-1.76,12.18,12.18,0,0,0,3-4.1,6.39,6.39,0,0,1,2.34-2.81,5.37,5.37,0,0,1,3.06-.9,5.75,5.75,0,0,1,3.1,1,7.78,7.78,0,0,1,2.52,3,5.1,5.1,0,0,1,.32,3.56,10.5,10.5,0,0,1-1.94,4,15.53,15.53,0,0,1-3.89,3.52,16,16,0,0,1-5.44,2.24A16.64,16.64,0,0,1,47,61.55a17.59,17.59,0,0,1-7.31-4.25,17.07,17.07,0,0,1-4.46-7.48,18,18,0,0,1,.14-10A21.79,21.79,0,0,1,41,30.05a29,29,0,0,1,9.25-6.23,32.47,32.47,0,0,1,11.05-2.48,28.49,28.49,0,0,1,11,1.51c.91.34,1.81.65,2.7.94l2.63.86a22.09,22.09,0,0,1,4.82-4.89,4.64,4.64,0,0,1,2.27-1,1.65,1.65,0,0,1,1.4.39,1.27,1.27,0,0,1,.25,1.23,2.5,2.5,0,0,1-1.11,1.4,4.13,4.13,0,0,0-1.44,1.77A11.36,11.36,0,0,0,83,26.17q10.37,2.58,17.67,2.08T112.07,23.64Z"/></g></g></g></svg>